<mxfile host="Electron" agent="Mozilla/5.0 (Windows NT 10.0; Win64; x64) AppleWebKit/537.36 (KHTML, like Gecko) draw.io/27.0.9 Chrome/134.0.6998.205 Electron/35.4.0 Safari/537.36" version="27.0.9">
  <diagram name="Page-1" id="1b2dLuzC9DaLizCHAp7A">
    <mxGraphModel dx="14260" dy="8410" grid="1" gridSize="10" guides="1" tooltips="1" connect="1" arrows="1" fold="1" page="1" pageScale="1" pageWidth="827" pageHeight="1169" math="0" shadow="0">
      <root>
        <mxCell id="0" />
        <mxCell id="1" parent="0" />
        <mxCell id="QBRxSz0EY-qPVkkWW2uJ-1035" value="" style="whiteSpace=wrap;strokeWidth=2;" parent="1" vertex="1">
          <mxGeometry x="780" y="2270" width="4421" height="1707" as="geometry" />
        </mxCell>
        <mxCell id="QBRxSz0EY-qPVkkWW2uJ-1036" value="Doctor" style="whiteSpace=wrap;strokeWidth=2;" parent="1" vertex="1">
          <mxGeometry x="11680" y="2270" width="2144" height="1707" as="geometry" />
        </mxCell>
        <mxCell id="QBRxSz0EY-qPVkkWW2uJ-1037" value="Patient" style="whiteSpace=wrap;strokeWidth=2;" parent="1" vertex="1">
          <mxGeometry x="7580" y="1120" width="4080" height="2533" as="geometry" />
        </mxCell>
        <mxCell id="QBRxSz0EY-qPVkkWW2uJ-1038" value="Admin" style="whiteSpace=wrap;strokeWidth=2;" parent="1" vertex="1">
          <mxGeometry x="5221" y="2141" width="2339" height="1512" as="geometry" />
        </mxCell>
        <mxCell id="QBRxSz0EY-qPVkkWW2uJ-1039" value="Start" style="whiteSpace=wrap;strokeWidth=2;" parent="1" vertex="1">
          <mxGeometry x="6627" y="2166" width="95" height="54" as="geometry" />
        </mxCell>
        <mxCell id="QBRxSz0EY-qPVkkWW2uJ-1040" value="Login with Credentials" style="whiteSpace=wrap;strokeWidth=2;" parent="1" vertex="1">
          <mxGeometry x="6565" y="2307" width="221" height="54" as="geometry" />
        </mxCell>
        <mxCell id="QBRxSz0EY-qPVkkWW2uJ-1041" value="View Welcome Page" style="whiteSpace=wrap;strokeWidth=2;" parent="1" vertex="1">
          <mxGeometry x="6574" y="2458" width="202" height="54" as="geometry" />
        </mxCell>
        <mxCell id="QBRxSz0EY-qPVkkWW2uJ-1042" value="Select Category: Doctor/Hospital/Service/Ambulance" style="whiteSpace=wrap;strokeWidth=2;" parent="1" vertex="1">
          <mxGeometry x="6514" y="2597" width="322" height="78" as="geometry" />
        </mxCell>
        <mxCell id="QBRxSz0EY-qPVkkWW2uJ-1043" value="Filter by Date/Search by Hospital/Doctor/User/ID" style="whiteSpace=wrap;strokeWidth=2;" parent="1" vertex="1">
          <mxGeometry x="7235" y="2899" width="260" height="78" as="geometry" />
        </mxCell>
        <mxCell id="QBRxSz0EY-qPVkkWW2uJ-1044" value="View Purchase Details: Date/Service/Amount" style="whiteSpace=wrap;strokeWidth=2;" parent="1" vertex="1">
          <mxGeometry x="7235" y="3127" width="260" height="78" as="geometry" />
        </mxCell>
        <mxCell id="QBRxSz0EY-qPVkkWW2uJ-1045" value="Select Role: User/Doctor/Hospital/Moderator" style="whiteSpace=wrap;strokeWidth=2;" parent="1" vertex="1">
          <mxGeometry x="5924" y="2748" width="296" height="78" as="geometry" />
        </mxCell>
        <mxCell id="QBRxSz0EY-qPVkkWW2uJ-1046" value="Create New Account: Enter Details" style="whiteSpace=wrap;strokeWidth=2;" parent="1" vertex="1">
          <mxGeometry x="5648" y="2899" width="260" height="78" as="geometry" />
        </mxCell>
        <mxCell id="QBRxSz0EY-qPVkkWW2uJ-1047" value="Update Account: Edit Name/Email/Role" style="whiteSpace=wrap;strokeWidth=2;" parent="1" vertex="1">
          <mxGeometry x="5958" y="2899" width="260" height="78" as="geometry" />
        </mxCell>
        <mxCell id="QBRxSz0EY-qPVkkWW2uJ-1048" value="Delete Account: Confirm Deletion" style="whiteSpace=wrap;strokeWidth=2;" parent="1" vertex="1">
          <mxGeometry x="6925" y="3127" width="260" height="78" as="geometry" />
        </mxCell>
        <mxCell id="QBRxSz0EY-qPVkkWW2uJ-1049" value="Manage Moderators" style="whiteSpace=wrap;strokeWidth=2;" parent="1" vertex="1">
          <mxGeometry x="6268" y="2911" width="198" height="54" as="geometry" />
        </mxCell>
        <mxCell id="QBRxSz0EY-qPVkkWW2uJ-1050" value="Create Moderator: Enter Credentials" style="whiteSpace=wrap;strokeWidth=2;" parent="1" vertex="1">
          <mxGeometry x="6305" y="3127" width="260" height="78" as="geometry" />
        </mxCell>
        <mxCell id="QBRxSz0EY-qPVkkWW2uJ-1051" value="Update Moderator: Edit Permissions" style="whiteSpace=wrap;strokeWidth=2;" parent="1" vertex="1">
          <mxGeometry x="6615" y="3127" width="260" height="78" as="geometry" />
        </mxCell>
        <mxCell id="QBRxSz0EY-qPVkkWW2uJ-1052" value="Delete Moderator: Confirm Deletion" style="whiteSpace=wrap;strokeWidth=2;" parent="1" vertex="1">
          <mxGeometry x="5909" y="3127" width="260" height="78" as="geometry" />
        </mxCell>
        <mxCell id="QBRxSz0EY-qPVkkWW2uJ-1053" value="Review Doctor/Hospital Listing Requests" style="whiteSpace=wrap;strokeWidth=2;" parent="1" vertex="1">
          <mxGeometry x="5338" y="2899" width="260" height="78" as="geometry" />
        </mxCell>
        <mxCell id="QBRxSz0EY-qPVkkWW2uJ-1054" value="Sync: Approve/Reject Listing" style="rhombus;strokeWidth=2;whiteSpace=wrap;" parent="1" vertex="1">
          <mxGeometry x="5329" y="3027" width="278" height="278" as="geometry" />
        </mxCell>
        <mxCell id="QBRxSz0EY-qPVkkWW2uJ-1055" value="End" style="whiteSpace=wrap;strokeWidth=2;" parent="1" vertex="1">
          <mxGeometry x="6074" y="3476" width="86" height="54" as="geometry" />
        </mxCell>
        <mxCell id="QBRxSz0EY-qPVkkWW2uJ-1056" value="Start" style="whiteSpace=wrap;strokeWidth=2;" parent="1" vertex="1">
          <mxGeometry x="9600" y="1145" width="95" height="54" as="geometry" />
        </mxCell>
        <mxCell id="QBRxSz0EY-qPVkkWW2uJ-1057" value="View Splash Screen: Logo/Blue Background" style="whiteSpace=wrap;strokeWidth=2;" parent="1" vertex="1">
          <mxGeometry x="9518" y="1249" width="260" height="78" as="geometry" />
        </mxCell>
        <mxCell id="QBRxSz0EY-qPVkkWW2uJ-1058" value="First-Time User?" style="whiteSpace=wrap;strokeWidth=2;" parent="1" vertex="1">
          <mxGeometry x="9560" y="1377" width="176" height="54" as="geometry" />
        </mxCell>
        <mxCell id="QBRxSz0EY-qPVkkWW2uJ-1059" value="View Carousel: 3 Slides" style="whiteSpace=wrap;strokeWidth=2;" parent="1" vertex="1">
          <mxGeometry x="9040" y="1460" width="226" height="54" as="geometry" />
        </mxCell>
        <mxCell id="QBRxSz0EY-qPVkkWW2uJ-1060" value="Click Get Started: Save Cookie" style="whiteSpace=wrap;strokeWidth=2;" parent="1" vertex="1">
          <mxGeometry x="9130" y="1681" width="260" height="78" as="geometry" />
        </mxCell>
        <mxCell id="QBRxSz0EY-qPVkkWW2uJ-1061" value="View Login Screen" style="whiteSpace=wrap;strokeWidth=2;" parent="1" vertex="1">
          <mxGeometry x="9553" y="1759" width="190" height="54" as="geometry" />
        </mxCell>
        <mxCell id="QBRxSz0EY-qPVkkWW2uJ-1062" value="Enter Email/Password or Social Login" style="whiteSpace=wrap;strokeWidth=2;" parent="1" vertex="1">
          <mxGeometry x="9180" y="2229" width="260" height="78" as="geometry" />
        </mxCell>
        <mxCell id="QBRxSz0EY-qPVkkWW2uJ-1063" value="Enter Email/Password/Name/Phone" style="whiteSpace=wrap;strokeWidth=2;" parent="1" vertex="1">
          <mxGeometry x="9990" y="1890" width="273" height="78" as="geometry" />
        </mxCell>
        <mxCell id="QBRxSz0EY-qPVkkWW2uJ-1064" value="Receive OTP via Email" style="whiteSpace=wrap;strokeWidth=2;" parent="1" vertex="1">
          <mxGeometry x="10017" y="2018" width="219" height="54" as="geometry" />
        </mxCell>
        <mxCell id="QBRxSz0EY-qPVkkWW2uJ-1065" value="Verify OTP" style="whiteSpace=wrap;strokeWidth=2;" parent="1" vertex="1">
          <mxGeometry x="10059" y="2170" width="136" height="54" as="geometry" />
        </mxCell>
        <mxCell id="QBRxSz0EY-qPVkkWW2uJ-1066" value="Setup Profile: Upload Picture" style="whiteSpace=wrap;strokeWidth=2;" parent="1" vertex="1">
          <mxGeometry x="9996" y="2299" width="260" height="78" as="geometry" />
        </mxCell>
        <mxCell id="QBRxSz0EY-qPVkkWW2uJ-1067" value="Enter Info: Gender/Age/Address" style="whiteSpace=wrap;strokeWidth=2;" parent="1" vertex="1">
          <mxGeometry x="9996" y="2450" width="260" height="78" as="geometry" />
        </mxCell>
        <mxCell id="QBRxSz0EY-qPVkkWW2uJ-1068" value="Grant Location Permission/Select on Map" style="whiteSpace=wrap;strokeWidth=2;" parent="1" vertex="1">
          <mxGeometry x="9518" y="2597" width="260" height="78" as="geometry" />
        </mxCell>
        <mxCell id="QBRxSz0EY-qPVkkWW2uJ-1069" value="Access Homepage" style="whiteSpace=wrap;strokeWidth=2;" parent="1" vertex="1">
          <mxGeometry x="9554" y="2760" width="187" height="54" as="geometry" />
        </mxCell>
        <mxCell id="QBRxSz0EY-qPVkkWW2uJ-1070" value="Search: Doctor/Hospital/Test" style="whiteSpace=wrap;strokeWidth=2;" parent="1" vertex="1">
          <mxGeometry x="7615" y="2899" width="260" height="78" as="geometry" />
        </mxCell>
        <mxCell id="QBRxSz0EY-qPVkkWW2uJ-1071" value="Filter Search: Specialist/Disease" style="whiteSpace=wrap;strokeWidth=2;" parent="1" vertex="1">
          <mxGeometry x="7925" y="2899" width="260" height="78" as="geometry" />
        </mxCell>
        <mxCell id="QBRxSz0EY-qPVkkWW2uJ-1072" value="View Carousel: Hospitals/Services" style="whiteSpace=wrap;strokeWidth=2;" parent="1" vertex="1">
          <mxGeometry x="8235" y="2899" width="260" height="78" as="geometry" />
        </mxCell>
        <mxCell id="QBRxSz0EY-qPVkkWW2uJ-1073" value="Mark Favorite: Click bookmark Icon" style="whiteSpace=wrap;strokeWidth=2;" parent="1" vertex="1">
          <mxGeometry x="7826" y="3127" width="260" height="78" as="geometry" />
        </mxCell>
        <mxCell id="QBRxSz0EY-qPVkkWW2uJ-1074" value="Click View All: See Full List" style="whiteSpace=wrap;strokeWidth=2;" parent="1" vertex="1">
          <mxGeometry x="8293" y="3139" width="254" height="54" as="geometry" />
        </mxCell>
        <mxCell id="QBRxSz0EY-qPVkkWW2uJ-1075" value="Request Appointment: Select Date/Time" style="whiteSpace=wrap;strokeWidth=2;" parent="1" vertex="1">
          <mxGeometry x="9828" y="2899" width="260" height="78" as="geometry" />
        </mxCell>
        <mxCell id="QBRxSz0EY-qPVkkWW2uJ-1076" value="Sync: Appointment Request" style="rhombus;strokeWidth=2;whiteSpace=wrap;" parent="1" vertex="1">
          <mxGeometry x="9833" y="3041" width="250" height="250" as="geometry" />
        </mxCell>
        <mxCell id="QBRxSz0EY-qPVkkWW2uJ-1079" value="View Blogs: Filter by Category/Sort" style="whiteSpace=wrap;strokeWidth=2;" parent="1" vertex="1">
          <mxGeometry x="11068" y="2899" width="260" height="78" as="geometry" />
        </mxCell>
        <mxCell id="QBRxSz0EY-qPVkkWW2uJ-1080" value="Comment/React on Blog" style="whiteSpace=wrap;strokeWidth=2;" parent="1" vertex="1">
          <mxGeometry x="11081" y="3139" width="234" height="54" as="geometry" />
        </mxCell>
        <mxCell id="QBRxSz0EY-qPVkkWW2uJ-1081" value="Sync: Blog Interaction" style="rhombus;strokeWidth=2;whiteSpace=wrap;" parent="1" vertex="1">
          <mxGeometry x="10339" y="3397" width="211" height="211" as="geometry" />
        </mxCell>
        <mxCell id="QBRxSz0EY-qPVkkWW2uJ-1082" value="Chat with AI Doctor: Send/View Messages" style="whiteSpace=wrap;strokeWidth=2;" parent="1" vertex="1">
          <mxGeometry x="9518" y="2899" width="260" height="78" as="geometry" />
        </mxCell>
        <mxCell id="QBRxSz0EY-qPVkkWW2uJ-1083" value="View Order History: Submit Review/Reorder" style="whiteSpace=wrap;strokeWidth=2;" parent="1" vertex="1">
          <mxGeometry x="9208" y="2899" width="260" height="78" as="geometry" />
        </mxCell>
        <mxCell id="QBRxSz0EY-qPVkkWW2uJ-1084" value="Submit Review: Rate/Comment" style="whiteSpace=wrap;strokeWidth=2;" parent="1" vertex="1">
          <mxGeometry x="9208" y="3127" width="260" height="78" as="geometry" />
        </mxCell>
        <mxCell id="QBRxSz0EY-qPVkkWW2uJ-1085" value="Sync: Review Submitted" style="rhombus;strokeWidth=2;whiteSpace=wrap;" parent="1" vertex="1">
          <mxGeometry x="9621" y="3390" width="226" height="226" as="geometry" />
        </mxCell>
        <mxCell id="QBRxSz0EY-qPVkkWW2uJ-1086" value="Track Appointments: View Date/Serial" style="whiteSpace=wrap;strokeWidth=2;" parent="1" vertex="1">
          <mxGeometry x="10138" y="2899" width="260" height="78" as="geometry" />
        </mxCell>
        <mxCell id="QBRxSz0EY-qPVkkWW2uJ-1087" value="Track Active Orders: Ambulance/Cabin" style="whiteSpace=wrap;strokeWidth=2;" parent="1" vertex="1">
          <mxGeometry x="10448" y="2899" width="260" height="78" as="geometry" />
        </mxCell>
        <mxCell id="QBRxSz0EY-qPVkkWW2uJ-1088" value="Update Profile: Name/Email/2FA" style="whiteSpace=wrap;strokeWidth=2;" parent="1" vertex="1">
          <mxGeometry x="10758" y="2899" width="260" height="78" as="geometry" />
        </mxCell>
        <mxCell id="QBRxSz0EY-qPVkkWW2uJ-1089" value="Change Password: Verify Current Password" style="whiteSpace=wrap;strokeWidth=2;" parent="1" vertex="1">
          <mxGeometry x="10758" y="3127" width="260" height="78" as="geometry" />
        </mxCell>
        <mxCell id="QBRxSz0EY-qPVkkWW2uJ-1090" value="Add Recovery Email: Verify OTP" style="whiteSpace=wrap;strokeWidth=2;" parent="1" vertex="1">
          <mxGeometry x="11365" y="3127" width="260" height="78" as="geometry" />
        </mxCell>
        <mxCell id="QBRxSz0EY-qPVkkWW2uJ-1091" value="Submit Query: Enter Question" style="whiteSpace=wrap;strokeWidth=2;" parent="1" vertex="1">
          <mxGeometry x="8588" y="2899" width="260" height="78" as="geometry" />
        </mxCell>
        <mxCell id="QBRxSz0EY-qPVkkWW2uJ-1092" value="Sync: Query Submitted" style="rhombus;strokeWidth=2;whiteSpace=wrap;" parent="1" vertex="1">
          <mxGeometry x="8609" y="3057" width="218" height="218" as="geometry" />
        </mxCell>
        <mxCell id="QBRxSz0EY-qPVkkWW2uJ-1093" value="Use Swipe/Back Button" style="whiteSpace=wrap;strokeWidth=2;" parent="1" vertex="1">
          <mxGeometry x="11388" y="2911" width="227" height="54" as="geometry" />
        </mxCell>
        <mxCell id="QBRxSz0EY-qPVkkWW2uJ-1094" value="End" style="whiteSpace=wrap;strokeWidth=2;" parent="1" vertex="1">
          <mxGeometry x="10649" y="3476" width="86" height="54" as="geometry" />
        </mxCell>
        <mxCell id="QBRxSz0EY-qPVkkWW2uJ-1095" value="Start" style="whiteSpace=wrap;strokeWidth=2;" parent="1" vertex="1">
          <mxGeometry x="12728" y="2307" width="95" height="54" as="geometry" />
        </mxCell>
        <mxCell id="QBRxSz0EY-qPVkkWW2uJ-1096" value="Login with Credentials" style="whiteSpace=wrap;strokeWidth=2;" parent="1" vertex="1">
          <mxGeometry x="12665" y="2458" width="221" height="54" as="geometry" />
        </mxCell>
        <mxCell id="QBRxSz0EY-qPVkkWW2uJ-1097" value="View Welcome Page: Profile Picture/Name" style="whiteSpace=wrap;strokeWidth=2;" parent="1" vertex="1">
          <mxGeometry x="12645" y="2597" width="260" height="78" as="geometry" />
        </mxCell>
        <mxCell id="QBRxSz0EY-qPVkkWW2uJ-1098" value="Access Quick Toggles" style="whiteSpace=wrap;strokeWidth=2;" parent="1" vertex="1">
          <mxGeometry x="12671" y="2760" width="208" height="54" as="geometry" />
        </mxCell>
        <mxCell id="QBRxSz0EY-qPVkkWW2uJ-1099" value="Update Profile: Picture/Name/Degrees" style="whiteSpace=wrap;strokeWidth=2;" parent="1" vertex="1">
          <mxGeometry x="11984" y="2899" width="260" height="78" as="geometry" />
        </mxCell>
        <mxCell id="QBRxSz0EY-qPVkkWW2uJ-1100" value="Delete/Deactivate Account: Confirm Password" style="whiteSpace=wrap;strokeWidth=2;" parent="1" vertex="1">
          <mxGeometry x="11715" y="3127" width="260" height="78" as="geometry" />
        </mxCell>
        <mxCell id="QBRxSz0EY-qPVkkWW2uJ-1101" value="Request Hospital Listing: Submit Application" style="whiteSpace=wrap;strokeWidth=2;" parent="1" vertex="1">
          <mxGeometry x="12025" y="3127" width="260" height="78" as="geometry" />
        </mxCell>
        <mxCell id="QBRxSz0EY-qPVkkWW2uJ-1102" value="Sync: Listing Approval" style="rhombus;strokeWidth=2;whiteSpace=wrap;" parent="1" vertex="1">
          <mxGeometry x="12050" y="3398" width="211" height="211" as="geometry" />
        </mxCell>
        <mxCell id="QBRxSz0EY-qPVkkWW2uJ-1103" value="View Recent Reviews: 3-5 Comments" style="whiteSpace=wrap;strokeWidth=2;" parent="1" vertex="1">
          <mxGeometry x="12335" y="2899" width="260" height="78" as="geometry" />
        </mxCell>
        <mxCell id="QBRxSz0EY-qPVkkWW2uJ-1104" value="View All Reviews: Filter by Rating/Keywords" style="whiteSpace=wrap;strokeWidth=2;" parent="1" vertex="1">
          <mxGeometry x="12335" y="3127" width="260" height="78" as="geometry" />
        </mxCell>
        <mxCell id="QBRxSz0EY-qPVkkWW2uJ-1105" value="Reply to Review: Enter Text" style="whiteSpace=wrap;strokeWidth=2;" parent="1" vertex="1">
          <mxGeometry x="12336" y="3476" width="258" height="54" as="geometry" />
        </mxCell>
        <mxCell id="QBRxSz0EY-qPVkkWW2uJ-1106" value="Sync: Review Submitted" style="rhombus;strokeWidth=2;whiteSpace=wrap;" parent="1" vertex="1">
          <mxGeometry x="12311" y="3726" width="226" height="226" as="geometry" />
        </mxCell>
        <mxCell id="QBRxSz0EY-qPVkkWW2uJ-1107" value="View Appointment Requests: Patient/Date" style="whiteSpace=wrap;strokeWidth=2;" parent="1" vertex="1">
          <mxGeometry x="12645" y="2899" width="260" height="78" as="geometry" />
        </mxCell>
        <mxCell id="QBRxSz0EY-qPVkkWW2uJ-1108" value="Accept/Reject Appointment" style="whiteSpace=wrap;strokeWidth=2;" parent="1" vertex="1">
          <mxGeometry x="12645" y="3127" width="260" height="78" as="geometry" />
        </mxCell>
        <mxCell id="QBRxSz0EY-qPVkkWW2uJ-1109" value="Sync: Appointment Request" style="rhombus;strokeWidth=2;whiteSpace=wrap;" parent="1" vertex="1">
          <mxGeometry x="12650" y="3378" width="250" height="250" as="geometry" />
        </mxCell>
        <mxCell id="QBRxSz0EY-qPVkkWW2uJ-1110" value="Manage Blogs: Add/Edit/Delete" style="whiteSpace=wrap;strokeWidth=2;" parent="1" vertex="1">
          <mxGeometry x="13219" y="3127" width="260" height="78" as="geometry" />
        </mxCell>
        <mxCell id="QBRxSz0EY-qPVkkWW2uJ-1111" value="Create Blog: Open Editor/Autosave" style="whiteSpace=wrap;strokeWidth=2;" parent="1" vertex="1">
          <mxGeometry x="13263" y="3464" width="260" height="78" as="geometry" />
        </mxCell>
        <mxCell id="QBRxSz0EY-qPVkkWW2uJ-1112" value="Edit/Delete Blog: Tap-and-Hold" style="whiteSpace=wrap;strokeWidth=2;" parent="1" vertex="1">
          <mxGeometry x="12953" y="3464" width="260" height="78" as="geometry" />
        </mxCell>
        <mxCell id="QBRxSz0EY-qPVkkWW2uJ-1113" value="Sync: Blog Interaction" style="rhombus;strokeWidth=2;whiteSpace=wrap;" parent="1" vertex="1">
          <mxGeometry x="13092" y="3733" width="211" height="211" as="geometry" />
        </mxCell>
        <mxCell id="QBRxSz0EY-qPVkkWW2uJ-1114" value="View Patient History: Search by Name/Date" style="whiteSpace=wrap;strokeWidth=2;" parent="1" vertex="1">
          <mxGeometry x="13529" y="2899" width="260" height="78" as="geometry" />
        </mxCell>
        <mxCell id="QBRxSz0EY-qPVkkWW2uJ-1115" value="View Visit Details: Timestamp/Reason" style="whiteSpace=wrap;strokeWidth=2;" parent="1" vertex="1">
          <mxGeometry x="13529" y="3127" width="260" height="78" as="geometry" />
        </mxCell>
        <mxCell id="QBRxSz0EY-qPVkkWW2uJ-1116" value="End" style="whiteSpace=wrap;strokeWidth=2;" parent="1" vertex="1">
          <mxGeometry x="13616" y="3476" width="86" height="54" as="geometry" />
        </mxCell>
        <mxCell id="QBRxSz0EY-qPVkkWW2uJ-1117" value="Start" style="whiteSpace=wrap;strokeWidth=2;" parent="1" vertex="1">
          <mxGeometry x="2691" y="2307" width="95" height="54" as="geometry" />
        </mxCell>
        <mxCell id="QBRxSz0EY-qPVkkWW2uJ-1118" value="Login with Credentials" style="whiteSpace=wrap;strokeWidth=2;" parent="1" vertex="1">
          <mxGeometry x="2628" y="2458" width="221" height="54" as="geometry" />
        </mxCell>
        <mxCell id="QBRxSz0EY-qPVkkWW2uJ-1119" value="View Welcome Page: Profile Picture/Name" style="whiteSpace=wrap;strokeWidth=2;" parent="1" vertex="1">
          <mxGeometry x="2609" y="2597" width="260" height="78" as="geometry" />
        </mxCell>
        <mxCell id="QBRxSz0EY-qPVkkWW2uJ-1120" value="Access Quick Toggles" style="whiteSpace=wrap;strokeWidth=2;" parent="1" vertex="1">
          <mxGeometry x="2634" y="2760" width="208" height="54" as="geometry" />
        </mxCell>
        <mxCell id="QBRxSz0EY-qPVkkWW2uJ-1121" value="Update Profile: Picture/Name/Location" style="whiteSpace=wrap;strokeWidth=2;" parent="1" vertex="1">
          <mxGeometry x="906" y="2899" width="260" height="78" as="geometry" />
        </mxCell>
        <mxCell id="QBRxSz0EY-qPVkkWW2uJ-1122" value="Delete/Deactivate Account: Confirm Password" style="whiteSpace=wrap;strokeWidth=2;" parent="1" vertex="1">
          <mxGeometry x="815" y="3127" width="260" height="78" as="geometry" />
        </mxCell>
        <mxCell id="QBRxSz0EY-qPVkkWW2uJ-1123" value="Request Hospital Listing: Submit Application" style="whiteSpace=wrap;strokeWidth=2;" parent="1" vertex="1">
          <mxGeometry x="1125" y="3127" width="260" height="78" as="geometry" />
        </mxCell>
        <mxCell id="QBRxSz0EY-qPVkkWW2uJ-1124" value="Listing Approval" style="rhombus;strokeWidth=2;whiteSpace=wrap;" parent="1" vertex="1">
          <mxGeometry x="1150" y="3398" width="211" height="211" as="geometry" />
        </mxCell>
        <mxCell id="QBRxSz0EY-qPVkkWW2uJ-1125" value="View Recent Reviews: 3-5 Comments" style="whiteSpace=wrap;strokeWidth=2;" parent="1" vertex="1">
          <mxGeometry x="1435" y="2899" width="260" height="78" as="geometry" />
        </mxCell>
        <mxCell id="QBRxSz0EY-qPVkkWW2uJ-1126" value="View All Reviews: Filter by Rating/Keywords" style="whiteSpace=wrap;strokeWidth=2;" parent="1" vertex="1">
          <mxGeometry x="1435" y="3127" width="260" height="78" as="geometry" />
        </mxCell>
        <mxCell id="QBRxSz0EY-qPVkkWW2uJ-1127" value="Reply to Review: Enter Text" style="whiteSpace=wrap;strokeWidth=2;" parent="1" vertex="1">
          <mxGeometry x="1436" y="3476" width="258" height="54" as="geometry" />
        </mxCell>
        <mxCell id="QBRxSz0EY-qPVkkWW2uJ-1128" value="Review Submitted" style="rhombus;strokeWidth=2;whiteSpace=wrap;" parent="1" vertex="1">
          <mxGeometry x="1409" y="3726" width="226" height="226" as="geometry" />
        </mxCell>
        <mxCell id="QBRxSz0EY-qPVkkWW2uJ-1129" value="View Appointment Requests: Patient/Date" style="whiteSpace=wrap;strokeWidth=2;" parent="1" vertex="1">
          <mxGeometry x="1745" y="2899" width="260" height="78" as="geometry" />
        </mxCell>
        <mxCell id="QBRxSz0EY-qPVkkWW2uJ-1130" value="Accept/Reject Appointment" style="whiteSpace=wrap;strokeWidth=2;" parent="1" vertex="1">
          <mxGeometry x="1745" y="3127" width="260" height="78" as="geometry" />
        </mxCell>
        <mxCell id="QBRxSz0EY-qPVkkWW2uJ-1131" value="Appointment Request" style="rhombus;strokeWidth=2;whiteSpace=wrap;" parent="1" vertex="1">
          <mxGeometry x="1750" y="3378" width="250" height="250" as="geometry" />
        </mxCell>
        <mxCell id="QBRxSz0EY-qPVkkWW2uJ-1132" value="Manage Blogs: Add/Edit/Delete" style="whiteSpace=wrap;strokeWidth=2;" parent="1" vertex="1">
          <mxGeometry x="2144" y="3127" width="260" height="78" as="geometry" />
        </mxCell>
        <mxCell id="QBRxSz0EY-qPVkkWW2uJ-1133" value="Create Blog: Open Editor/Autosave" style="whiteSpace=wrap;strokeWidth=2;" parent="1" vertex="1">
          <mxGeometry x="2375" y="3464" width="260" height="78" as="geometry" />
        </mxCell>
        <mxCell id="QBRxSz0EY-qPVkkWW2uJ-1134" value="Edit/Delete Blog: Tap-and-Hold" style="whiteSpace=wrap;strokeWidth=2;" parent="1" vertex="1">
          <mxGeometry x="2053" y="3464" width="260" height="78" as="geometry" />
        </mxCell>
        <mxCell id="QBRxSz0EY-qPVkkWW2uJ-1135" value="Blog Interaction" style="rhombus;strokeWidth=2;whiteSpace=wrap;" parent="1" vertex="1">
          <mxGeometry x="2083" y="3733" width="211" height="211" as="geometry" />
        </mxCell>
        <mxCell id="QBRxSz0EY-qPVkkWW2uJ-1136" value="Manage Doctor Lists: Approved/Pending" style="whiteSpace=wrap;strokeWidth=2;" parent="1" vertex="1">
          <mxGeometry x="2609" y="2899" width="260" height="78" as="geometry" />
        </mxCell>
        <mxCell id="QBRxSz0EY-qPVkkWW2uJ-1137" value="Search Doctors: Name/Specialty/Status" style="whiteSpace=wrap;strokeWidth=2;" parent="1" vertex="1">
          <mxGeometry x="2454" y="3127" width="260" height="78" as="geometry" />
        </mxCell>
        <mxCell id="QBRxSz0EY-qPVkkWW2uJ-1138" value="Approve/Reject Doctor: Review Documents" style="whiteSpace=wrap;strokeWidth=2;" parent="1" vertex="1">
          <mxGeometry x="2764" y="3127" width="260" height="78" as="geometry" />
        </mxCell>
        <mxCell id="QBRxSz0EY-qPVkkWW2uJ-1139" value="Listing Approval" style="rhombus;strokeWidth=2;whiteSpace=wrap;" parent="1" vertex="1">
          <mxGeometry x="2788" y="3398" width="211" height="211" as="geometry" />
        </mxCell>
        <mxCell id="QBRxSz0EY-qPVkkWW2uJ-1140" value="Manage Cabins: View Floor Plan" style="whiteSpace=wrap;strokeWidth=2;" parent="1" vertex="1">
          <mxGeometry x="3229" y="2899" width="260" height="78" as="geometry" />
        </mxCell>
        <mxCell id="QBRxSz0EY-qPVkkWW2uJ-1141" value="Update Cabin Status: Free/Reserved" style="whiteSpace=wrap;strokeWidth=2;" parent="1" vertex="1">
          <mxGeometry x="3074" y="3127" width="260" height="78" as="geometry" />
        </mxCell>
        <mxCell id="QBRxSz0EY-qPVkkWW2uJ-1142" value="Add New Cabin: Enter Number/Type" style="whiteSpace=wrap;strokeWidth=2;" parent="1" vertex="1">
          <mxGeometry x="3384" y="3127" width="260" height="78" as="geometry" />
        </mxCell>
        <mxCell id="QBRxSz0EY-qPVkkWW2uJ-1143" value="Track Equipment: Sort by ID/User/Due" style="whiteSpace=wrap;strokeWidth=2;" parent="1" vertex="1">
          <mxGeometry x="3835" y="2899" width="260" height="78" as="geometry" />
        </mxCell>
        <mxCell id="QBRxSz0EY-qPVkkWW2uJ-1144" value="Check In/Out Equipment: Scan Barcode" style="whiteSpace=wrap;strokeWidth=2;" parent="1" vertex="1">
          <mxGeometry x="3694" y="3127" width="260" height="78" as="geometry" />
        </mxCell>
        <mxCell id="QBRxSz0EY-qPVkkWW2uJ-1145" value="View Overdue Alerts" style="whiteSpace=wrap;strokeWidth=2;" parent="1" vertex="1">
          <mxGeometry x="4031" y="3139" width="205" height="54" as="geometry" />
        </mxCell>
        <mxCell id="QBRxSz0EY-qPVkkWW2uJ-1146" value="Track Ambulances: View GPS Map" style="whiteSpace=wrap;strokeWidth=2;" parent="1" vertex="1">
          <mxGeometry x="4879" y="2899" width="260" height="78" as="geometry" />
        </mxCell>
        <mxCell id="QBRxSz0EY-qPVkkWW2uJ-1147" value="Update Status: Available/Returning" style="whiteSpace=wrap;strokeWidth=2;" parent="1" vertex="1">
          <mxGeometry x="4286" y="3127" width="260" height="78" as="geometry" />
        </mxCell>
        <mxCell id="QBRxSz0EY-qPVkkWW2uJ-1148" value="View Maintenance Schedules" style="whiteSpace=wrap;strokeWidth=2;" parent="1" vertex="1">
          <mxGeometry x="4906" y="3127" width="260" height="78" as="geometry" />
        </mxCell>
        <mxCell id="QBRxSz0EY-qPVkkWW2uJ-1149" value="Handle Queries: View Tickets" style="whiteSpace=wrap;strokeWidth=2;" parent="1" vertex="1">
          <mxGeometry x="4569" y="2899" width="260" height="78" as="geometry" />
        </mxCell>
        <mxCell id="QBRxSz0EY-qPVkkWW2uJ-1150" value="Reply to Query: Use Template/Mark Resolved" style="whiteSpace=wrap;strokeWidth=2;" parent="1" vertex="1">
          <mxGeometry x="4596" y="3127" width="260" height="78" as="geometry" />
        </mxCell>
        <mxCell id="QBRxSz0EY-qPVkkWW2uJ-1151" value="Sync: Query Submitted" style="rhombus;strokeWidth=2;whiteSpace=wrap;" parent="1" vertex="1">
          <mxGeometry x="4617" y="3394" width="218" height="218" as="geometry" />
        </mxCell>
        <mxCell id="QBRxSz0EY-qPVkkWW2uJ-1152" value="End" style="whiteSpace=wrap;strokeWidth=2;" parent="1" vertex="1">
          <mxGeometry x="4993" y="3476" width="86" height="54" as="geometry" />
        </mxCell>
        <mxCell id="QBRxSz0EY-qPVkkWW2uJ-1153" value="" style="curved=1;startArrow=none;endArrow=block;exitX=0.5;exitY=1;entryX=0.5;entryY=0;rounded=0;" parent="1" source="QBRxSz0EY-qPVkkWW2uJ-1039" target="QBRxSz0EY-qPVkkWW2uJ-1040" edge="1">
          <mxGeometry relative="1" as="geometry">
            <Array as="points" />
          </mxGeometry>
        </mxCell>
        <mxCell id="QBRxSz0EY-qPVkkWW2uJ-1154" value="" style="curved=1;startArrow=none;endArrow=block;exitX=0.5;exitY=1;entryX=0.5;entryY=0;rounded=0;" parent="1" source="QBRxSz0EY-qPVkkWW2uJ-1040" target="QBRxSz0EY-qPVkkWW2uJ-1041" edge="1">
          <mxGeometry relative="1" as="geometry">
            <Array as="points" />
          </mxGeometry>
        </mxCell>
        <mxCell id="QBRxSz0EY-qPVkkWW2uJ-1155" value="" style="curved=1;startArrow=none;endArrow=block;exitX=0.5;exitY=1;entryX=0.5;entryY=0;rounded=0;" parent="1" source="QBRxSz0EY-qPVkkWW2uJ-1041" target="QBRxSz0EY-qPVkkWW2uJ-1042" edge="1">
          <mxGeometry relative="1" as="geometry">
            <Array as="points" />
          </mxGeometry>
        </mxCell>
        <mxCell id="QBRxSz0EY-qPVkkWW2uJ-1156" value="View Purchase Records" style="curved=1;startArrow=none;endArrow=block;exitX=1;exitY=0.73;entryX=0.5;entryY=0;rounded=0;" parent="1" source="QBRxSz0EY-qPVkkWW2uJ-1042" target="QBRxSz0EY-qPVkkWW2uJ-1043" edge="1">
          <mxGeometry relative="1" as="geometry">
            <Array as="points">
              <mxPoint x="7365" y="2712" />
            </Array>
          </mxGeometry>
        </mxCell>
        <mxCell id="QBRxSz0EY-qPVkkWW2uJ-1157" value="" style="curved=1;startArrow=none;endArrow=block;exitX=0.5;exitY=1;entryX=0.5;entryY=0;rounded=0;" parent="1" source="QBRxSz0EY-qPVkkWW2uJ-1043" target="QBRxSz0EY-qPVkkWW2uJ-1044" edge="1">
          <mxGeometry relative="1" as="geometry">
            <Array as="points" />
          </mxGeometry>
        </mxCell>
        <mxCell id="QBRxSz0EY-qPVkkWW2uJ-1158" value="Manage Accounts" style="curved=1;startArrow=none;endArrow=block;exitX=0;exitY=0.76;entryX=0.5;entryY=0;rounded=0;" parent="1" source="QBRxSz0EY-qPVkkWW2uJ-1042" target="QBRxSz0EY-qPVkkWW2uJ-1045" edge="1">
          <mxGeometry relative="1" as="geometry">
            <Array as="points">
              <mxPoint x="6072" y="2712" />
            </Array>
          </mxGeometry>
        </mxCell>
        <mxCell id="QBRxSz0EY-qPVkkWW2uJ-1159" value="" style="curved=1;startArrow=none;endArrow=block;exitX=0;exitY=0.99;entryX=0.5;entryY=0;rounded=0;" parent="1" source="QBRxSz0EY-qPVkkWW2uJ-1045" target="QBRxSz0EY-qPVkkWW2uJ-1046" edge="1">
          <mxGeometry relative="1" as="geometry">
            <Array as="points">
              <mxPoint x="5778" y="2863" />
            </Array>
          </mxGeometry>
        </mxCell>
        <mxCell id="QBRxSz0EY-qPVkkWW2uJ-1160" value="" style="curved=1;startArrow=none;endArrow=block;exitX=0.53;exitY=1;entryX=0.5;entryY=0;rounded=0;" parent="1" source="QBRxSz0EY-qPVkkWW2uJ-1045" target="QBRxSz0EY-qPVkkWW2uJ-1047" edge="1">
          <mxGeometry relative="1" as="geometry">
            <Array as="points">
              <mxPoint x="6088" y="2863" />
            </Array>
          </mxGeometry>
        </mxCell>
        <mxCell id="QBRxSz0EY-qPVkkWW2uJ-1161" value="" style="curved=1;startArrow=none;endArrow=block;exitX=1;exitY=0.65;entryX=0.5;entryY=0;rounded=0;" parent="1" source="QBRxSz0EY-qPVkkWW2uJ-1045" target="QBRxSz0EY-qPVkkWW2uJ-1048" edge="1">
          <mxGeometry relative="1" as="geometry">
            <Array as="points">
              <mxPoint x="7055" y="2863" />
            </Array>
          </mxGeometry>
        </mxCell>
        <mxCell id="QBRxSz0EY-qPVkkWW2uJ-1162" value="" style="curved=1;startArrow=none;endArrow=block;exitX=1;exitY=0.99;entryX=0.5;entryY=0;rounded=0;" parent="1" source="QBRxSz0EY-qPVkkWW2uJ-1045" target="QBRxSz0EY-qPVkkWW2uJ-1049" edge="1">
          <mxGeometry relative="1" as="geometry">
            <Array as="points">
              <mxPoint x="6367" y="2863" />
            </Array>
          </mxGeometry>
        </mxCell>
        <mxCell id="QBRxSz0EY-qPVkkWW2uJ-1163" value="" style="curved=1;startArrow=none;endArrow=block;exitX=0.64;exitY=1;entryX=0.5;entryY=0;rounded=0;" parent="1" source="QBRxSz0EY-qPVkkWW2uJ-1049" target="QBRxSz0EY-qPVkkWW2uJ-1050" edge="1">
          <mxGeometry relative="1" as="geometry">
            <Array as="points">
              <mxPoint x="6435" y="3002" />
            </Array>
          </mxGeometry>
        </mxCell>
        <mxCell id="QBRxSz0EY-qPVkkWW2uJ-1164" value="" style="curved=1;startArrow=none;endArrow=block;exitX=1;exitY=0.81;entryX=0.5;entryY=0;rounded=0;" parent="1" source="QBRxSz0EY-qPVkkWW2uJ-1049" target="QBRxSz0EY-qPVkkWW2uJ-1051" edge="1">
          <mxGeometry relative="1" as="geometry">
            <Array as="points">
              <mxPoint x="6745" y="3002" />
            </Array>
          </mxGeometry>
        </mxCell>
        <mxCell id="QBRxSz0EY-qPVkkWW2uJ-1165" value="" style="curved=1;startArrow=none;endArrow=block;exitX=0;exitY=0.86;entryX=0.5;entryY=0;rounded=0;" parent="1" source="QBRxSz0EY-qPVkkWW2uJ-1049" target="QBRxSz0EY-qPVkkWW2uJ-1052" edge="1">
          <mxGeometry relative="1" as="geometry">
            <Array as="points">
              <mxPoint x="6039" y="3002" />
            </Array>
          </mxGeometry>
        </mxCell>
        <mxCell id="QBRxSz0EY-qPVkkWW2uJ-1166" value="" style="curved=1;startArrow=none;endArrow=block;exitX=0;exitY=0.74;entryX=0.5;entryY=0;rounded=0;" parent="1" source="QBRxSz0EY-qPVkkWW2uJ-1045" target="QBRxSz0EY-qPVkkWW2uJ-1053" edge="1">
          <mxGeometry relative="1" as="geometry">
            <Array as="points">
              <mxPoint x="5468" y="2863" />
            </Array>
          </mxGeometry>
        </mxCell>
        <mxCell id="QBRxSz0EY-qPVkkWW2uJ-1167" value="" style="curved=1;startArrow=none;endArrow=block;exitX=0.5;exitY=1;entryX=0.5;entryY=0;rounded=0;" parent="1" source="QBRxSz0EY-qPVkkWW2uJ-1053" target="QBRxSz0EY-qPVkkWW2uJ-1054" edge="1">
          <mxGeometry relative="1" as="geometry">
            <Array as="points" />
          </mxGeometry>
        </mxCell>
        <mxCell id="QBRxSz0EY-qPVkkWW2uJ-1168" value="" style="curved=1;startArrow=none;endArrow=block;exitX=0.43;exitY=1;entryX=1;entryY=0.39;rounded=0;" parent="1" source="QBRxSz0EY-qPVkkWW2uJ-1044" target="QBRxSz0EY-qPVkkWW2uJ-1055" edge="1">
          <mxGeometry relative="1" as="geometry">
            <Array as="points">
              <mxPoint x="7281" y="3342" />
            </Array>
          </mxGeometry>
        </mxCell>
        <mxCell id="QBRxSz0EY-qPVkkWW2uJ-1169" value="" style="curved=1;startArrow=none;endArrow=block;exitX=0.43;exitY=1;entryX=1;entryY=0.35;rounded=0;" parent="1" source="QBRxSz0EY-qPVkkWW2uJ-1048" target="QBRxSz0EY-qPVkkWW2uJ-1055" edge="1">
          <mxGeometry relative="1" as="geometry">
            <Array as="points">
              <mxPoint x="6971" y="3342" />
            </Array>
          </mxGeometry>
        </mxCell>
        <mxCell id="QBRxSz0EY-qPVkkWW2uJ-1170" value="" style="curved=1;startArrow=none;endArrow=block;exitX=0.39;exitY=1;entryX=0.09;entryY=0;rounded=0;" parent="1" source="QBRxSz0EY-qPVkkWW2uJ-1052" target="QBRxSz0EY-qPVkkWW2uJ-1055" edge="1">
          <mxGeometry relative="1" as="geometry">
            <Array as="points">
              <mxPoint x="5906" y="3342" />
            </Array>
          </mxGeometry>
        </mxCell>
        <mxCell id="QBRxSz0EY-qPVkkWW2uJ-1171" value="" style="curved=1;startArrow=none;endArrow=block;exitX=1;exitY=0.76;entryX=0;entryY=0.09;rounded=0;" parent="1" source="QBRxSz0EY-qPVkkWW2uJ-1054" target="QBRxSz0EY-qPVkkWW2uJ-1055" edge="1">
          <mxGeometry relative="1" as="geometry">
            <Array as="points">
              <mxPoint x="5800" y="3342" />
            </Array>
          </mxGeometry>
        </mxCell>
        <mxCell id="QBRxSz0EY-qPVkkWW2uJ-1172" value="" style="curved=1;startArrow=none;endArrow=block;exitX=0.5;exitY=1;entryX=0.5;entryY=0;rounded=0;" parent="1" source="QBRxSz0EY-qPVkkWW2uJ-1056" target="QBRxSz0EY-qPVkkWW2uJ-1057" edge="1">
          <mxGeometry relative="1" as="geometry">
            <Array as="points" />
          </mxGeometry>
        </mxCell>
        <mxCell id="QBRxSz0EY-qPVkkWW2uJ-1173" value="" style="curved=1;startArrow=none;endArrow=block;exitX=0.5;exitY=1;entryX=0.5;entryY=0;rounded=0;" parent="1" source="QBRxSz0EY-qPVkkWW2uJ-1057" target="QBRxSz0EY-qPVkkWW2uJ-1058" edge="1">
          <mxGeometry relative="1" as="geometry">
            <Array as="points" />
          </mxGeometry>
        </mxCell>
        <mxCell id="QBRxSz0EY-qPVkkWW2uJ-1174" value="Yes" style="curved=1;startArrow=none;endArrow=block;exitX=0;exitY=0.56;entryX=0.5;entryY=0;rounded=0;" parent="1" source="QBRxSz0EY-qPVkkWW2uJ-1058" target="QBRxSz0EY-qPVkkWW2uJ-1059" edge="1">
          <mxGeometry relative="1" as="geometry">
            <Array as="points">
              <mxPoint x="9280" y="1400" />
            </Array>
          </mxGeometry>
        </mxCell>
        <mxCell id="QBRxSz0EY-qPVkkWW2uJ-1175" value="" style="curved=1;startArrow=none;endArrow=block;exitX=0.5;exitY=1;entryX=0.5;entryY=0;rounded=0;" parent="1" source="QBRxSz0EY-qPVkkWW2uJ-1059" target="QBRxSz0EY-qPVkkWW2uJ-1060" edge="1">
          <mxGeometry relative="1" as="geometry">
            <Array as="points">
              <mxPoint x="9190" y="1640" />
            </Array>
          </mxGeometry>
        </mxCell>
        <mxCell id="QBRxSz0EY-qPVkkWW2uJ-1176" value="No" style="curved=1;startArrow=none;endArrow=block;exitX=1;exitY=0.55;entryX=1;entryY=0.45;rounded=0;" parent="1" source="QBRxSz0EY-qPVkkWW2uJ-1058" target="QBRxSz0EY-qPVkkWW2uJ-1061" edge="1">
          <mxGeometry relative="1" as="geometry">
            <Array as="points">
              <mxPoint x="10120" y="1490" />
              <mxPoint x="10110" y="1710" />
            </Array>
          </mxGeometry>
        </mxCell>
        <mxCell id="QBRxSz0EY-qPVkkWW2uJ-1177" value="" style="curved=1;startArrow=none;endArrow=block;exitX=1;exitY=0.5;entryX=0;entryY=0.45;rounded=0;exitDx=0;exitDy=0;" parent="1" source="QBRxSz0EY-qPVkkWW2uJ-1060" target="QBRxSz0EY-qPVkkWW2uJ-1061" edge="1">
          <mxGeometry relative="1" as="geometry">
            <Array as="points">
              <mxPoint x="9440" y="1760" />
            </Array>
          </mxGeometry>
        </mxCell>
        <mxCell id="QBRxSz0EY-qPVkkWW2uJ-1178" value="Login" style="curved=1;startArrow=none;endArrow=block;exitX=0;exitY=0.56;entryX=0.5;entryY=0;rounded=0;" parent="1" source="QBRxSz0EY-qPVkkWW2uJ-1061" target="QBRxSz0EY-qPVkkWW2uJ-1062" edge="1">
          <mxGeometry relative="1" as="geometry">
            <Array as="points">
              <mxPoint x="9310" y="1890" />
            </Array>
          </mxGeometry>
        </mxCell>
        <mxCell id="QBRxSz0EY-qPVkkWW2uJ-1179" value="Signup" style="curved=1;startArrow=none;endArrow=block;exitX=1;exitY=0.56;entryX=0.5;entryY=0;rounded=0;" parent="1" source="QBRxSz0EY-qPVkkWW2uJ-1061" target="QBRxSz0EY-qPVkkWW2uJ-1063" edge="1">
          <mxGeometry relative="1" as="geometry">
            <Array as="points">
              <mxPoint x="10120" y="1800" />
            </Array>
          </mxGeometry>
        </mxCell>
        <mxCell id="QBRxSz0EY-qPVkkWW2uJ-1180" value="" style="curved=1;startArrow=none;endArrow=block;exitX=0.5;exitY=1;entryX=0.5;entryY=0;rounded=0;" parent="1" source="QBRxSz0EY-qPVkkWW2uJ-1063" target="QBRxSz0EY-qPVkkWW2uJ-1064" edge="1">
          <mxGeometry relative="1" as="geometry">
            <Array as="points" />
          </mxGeometry>
        </mxCell>
        <mxCell id="QBRxSz0EY-qPVkkWW2uJ-1181" value="" style="curved=1;startArrow=none;endArrow=block;exitX=0.5;exitY=1;entryX=0.49;entryY=0;rounded=0;" parent="1" source="QBRxSz0EY-qPVkkWW2uJ-1064" target="QBRxSz0EY-qPVkkWW2uJ-1065" edge="1">
          <mxGeometry relative="1" as="geometry">
            <Array as="points" />
          </mxGeometry>
        </mxCell>
        <mxCell id="QBRxSz0EY-qPVkkWW2uJ-1182" value="" style="curved=1;startArrow=none;endArrow=block;exitX=0.49;exitY=1;entryX=0.5;entryY=0;rounded=0;" parent="1" source="QBRxSz0EY-qPVkkWW2uJ-1065" target="QBRxSz0EY-qPVkkWW2uJ-1066" edge="1">
          <mxGeometry relative="1" as="geometry">
            <Array as="points" />
          </mxGeometry>
        </mxCell>
        <mxCell id="QBRxSz0EY-qPVkkWW2uJ-1183" value="Skip/Upload" style="curved=1;startArrow=none;endArrow=block;exitX=0.5;exitY=1;entryX=0.5;entryY=0;rounded=0;" parent="1" source="QBRxSz0EY-qPVkkWW2uJ-1066" target="QBRxSz0EY-qPVkkWW2uJ-1067" edge="1">
          <mxGeometry relative="1" as="geometry">
            <Array as="points" />
          </mxGeometry>
        </mxCell>
        <mxCell id="QBRxSz0EY-qPVkkWW2uJ-1184" value="Skip/Complete" style="curved=1;startArrow=none;endArrow=block;exitX=0.5;exitY=1;entryX=1;entryY=0.43;rounded=0;" parent="1" source="QBRxSz0EY-qPVkkWW2uJ-1067" target="QBRxSz0EY-qPVkkWW2uJ-1068" edge="1">
          <mxGeometry relative="1" as="geometry">
            <Array as="points">
              <mxPoint x="10140" y="2631" />
            </Array>
          </mxGeometry>
        </mxCell>
        <mxCell id="QBRxSz0EY-qPVkkWW2uJ-1185" value="" style="curved=1;startArrow=none;endArrow=block;exitX=0.5;exitY=1;entryX=0;entryY=0.43;rounded=0;" parent="1" source="QBRxSz0EY-qPVkkWW2uJ-1062" target="QBRxSz0EY-qPVkkWW2uJ-1068" edge="1">
          <mxGeometry relative="1" as="geometry">
            <Array as="points">
              <mxPoint x="9340" y="2590" />
            </Array>
          </mxGeometry>
        </mxCell>
        <mxCell id="QBRxSz0EY-qPVkkWW2uJ-1186" value="" style="curved=1;startArrow=none;endArrow=block;exitX=0.5;exitY=1;entryX=0.5;entryY=0;rounded=0;" parent="1" source="QBRxSz0EY-qPVkkWW2uJ-1068" target="QBRxSz0EY-qPVkkWW2uJ-1069" edge="1">
          <mxGeometry relative="1" as="geometry">
            <Array as="points" />
          </mxGeometry>
        </mxCell>
        <mxCell id="QBRxSz0EY-qPVkkWW2uJ-1187" value="Fork" style="curved=1;startArrow=none;endArrow=block;exitX=0;exitY=0.57;entryX=0.5;entryY=0;rounded=0;" parent="1" source="QBRxSz0EY-qPVkkWW2uJ-1069" target="QBRxSz0EY-qPVkkWW2uJ-1070" edge="1">
          <mxGeometry relative="1" as="geometry">
            <Array as="points">
              <mxPoint x="7745" y="2863" />
            </Array>
          </mxGeometry>
        </mxCell>
        <mxCell id="QBRxSz0EY-qPVkkWW2uJ-1188" value="Fork" style="curved=1;startArrow=none;endArrow=block;exitX=0;exitY=0.58;entryX=0.5;entryY=0;rounded=0;" parent="1" source="QBRxSz0EY-qPVkkWW2uJ-1069" target="QBRxSz0EY-qPVkkWW2uJ-1071" edge="1">
          <mxGeometry relative="1" as="geometry">
            <Array as="points">
              <mxPoint x="8055" y="2863" />
            </Array>
          </mxGeometry>
        </mxCell>
        <mxCell id="QBRxSz0EY-qPVkkWW2uJ-1189" value="Fork" style="curved=1;startArrow=none;endArrow=block;exitX=0;exitY=0.6;entryX=0.5;entryY=0;rounded=0;" parent="1" source="QBRxSz0EY-qPVkkWW2uJ-1069" target="QBRxSz0EY-qPVkkWW2uJ-1072" edge="1">
          <mxGeometry relative="1" as="geometry">
            <Array as="points">
              <mxPoint x="8365" y="2863" />
            </Array>
          </mxGeometry>
        </mxCell>
        <mxCell id="QBRxSz0EY-qPVkkWW2uJ-1190" value="" style="curved=1;startArrow=none;endArrow=block;exitX=0;exitY=0.76;entryX=0.5;entryY=0;rounded=0;" parent="1" source="QBRxSz0EY-qPVkkWW2uJ-1072" target="QBRxSz0EY-qPVkkWW2uJ-1073" edge="1">
          <mxGeometry relative="1" as="geometry">
            <Array as="points">
              <mxPoint x="7956" y="3002" />
            </Array>
          </mxGeometry>
        </mxCell>
        <mxCell id="QBRxSz0EY-qPVkkWW2uJ-1191" value="" style="curved=1;startArrow=none;endArrow=block;exitX=0.63;exitY=1;entryX=0.5;entryY=0;rounded=0;" parent="1" source="QBRxSz0EY-qPVkkWW2uJ-1072" target="QBRxSz0EY-qPVkkWW2uJ-1074" edge="1">
          <mxGeometry relative="1" as="geometry">
            <Array as="points">
              <mxPoint x="8420" y="3002" />
            </Array>
          </mxGeometry>
        </mxCell>
        <mxCell id="QBRxSz0EY-qPVkkWW2uJ-1192" value="Fork" style="curved=1;startArrow=none;endArrow=block;exitX=1;exitY=0.92;entryX=0.5;entryY=0;rounded=0;" parent="1" source="QBRxSz0EY-qPVkkWW2uJ-1069" target="QBRxSz0EY-qPVkkWW2uJ-1075" edge="1">
          <mxGeometry relative="1" as="geometry">
            <Array as="points">
              <mxPoint x="9958" y="2863" />
            </Array>
          </mxGeometry>
        </mxCell>
        <mxCell id="QBRxSz0EY-qPVkkWW2uJ-1193" value="" style="curved=1;startArrow=none;endArrow=block;exitX=0.5;exitY=1;entryX=0.5;entryY=0;rounded=0;" parent="1" source="QBRxSz0EY-qPVkkWW2uJ-1075" target="QBRxSz0EY-qPVkkWW2uJ-1076" edge="1">
          <mxGeometry relative="1" as="geometry">
            <Array as="points" />
          </mxGeometry>
        </mxCell>
        <mxCell id="QBRxSz0EY-qPVkkWW2uJ-1196" value="Fork" style="curved=1;startArrow=none;endArrow=block;exitX=1;exitY=0.58;entryX=0.5;entryY=0;rounded=0;" parent="1" source="QBRxSz0EY-qPVkkWW2uJ-1069" target="QBRxSz0EY-qPVkkWW2uJ-1079" edge="1">
          <mxGeometry relative="1" as="geometry">
            <Array as="points">
              <mxPoint x="11198" y="2863" />
            </Array>
          </mxGeometry>
        </mxCell>
        <mxCell id="QBRxSz0EY-qPVkkWW2uJ-1197" value="" style="curved=1;startArrow=none;endArrow=block;exitX=0.5;exitY=1;entryX=0.5;entryY=0;rounded=0;" parent="1" source="QBRxSz0EY-qPVkkWW2uJ-1079" target="QBRxSz0EY-qPVkkWW2uJ-1080" edge="1">
          <mxGeometry relative="1" as="geometry">
            <Array as="points" />
          </mxGeometry>
        </mxCell>
        <mxCell id="QBRxSz0EY-qPVkkWW2uJ-1198" value="" style="curved=1;startArrow=none;endArrow=block;exitX=0;exitY=1;entryX=0.5;entryY=0;rounded=0;" parent="1" source="QBRxSz0EY-qPVkkWW2uJ-1080" target="QBRxSz0EY-qPVkkWW2uJ-1081" edge="1">
          <mxGeometry relative="1" as="geometry">
            <Array as="points">
              <mxPoint x="10444" y="3342" />
            </Array>
          </mxGeometry>
        </mxCell>
        <mxCell id="QBRxSz0EY-qPVkkWW2uJ-1199" value="Fork" style="curved=1;startArrow=none;endArrow=block;exitX=0.5;exitY=1;entryX=0.5;entryY=0;rounded=0;" parent="1" source="QBRxSz0EY-qPVkkWW2uJ-1069" target="QBRxSz0EY-qPVkkWW2uJ-1082" edge="1">
          <mxGeometry relative="1" as="geometry">
            <Array as="points" />
          </mxGeometry>
        </mxCell>
        <mxCell id="QBRxSz0EY-qPVkkWW2uJ-1200" value="Fork" style="curved=1;startArrow=none;endArrow=block;exitX=0;exitY=0.92;entryX=0.5;entryY=0;rounded=0;" parent="1" source="QBRxSz0EY-qPVkkWW2uJ-1069" target="QBRxSz0EY-qPVkkWW2uJ-1083" edge="1">
          <mxGeometry relative="1" as="geometry">
            <Array as="points">
              <mxPoint x="9338" y="2863" />
            </Array>
          </mxGeometry>
        </mxCell>
        <mxCell id="QBRxSz0EY-qPVkkWW2uJ-1201" value="" style="curved=1;startArrow=none;endArrow=block;exitX=0.5;exitY=1;entryX=0.5;entryY=0;rounded=0;" parent="1" source="QBRxSz0EY-qPVkkWW2uJ-1083" target="QBRxSz0EY-qPVkkWW2uJ-1084" edge="1">
          <mxGeometry relative="1" as="geometry">
            <Array as="points" />
          </mxGeometry>
        </mxCell>
        <mxCell id="QBRxSz0EY-qPVkkWW2uJ-1202" value="" style="curved=1;startArrow=none;endArrow=block;exitX=0.84;exitY=1;entryX=0.5;entryY=0;rounded=0;" parent="1" source="QBRxSz0EY-qPVkkWW2uJ-1084" target="QBRxSz0EY-qPVkkWW2uJ-1085" edge="1">
          <mxGeometry relative="1" as="geometry">
            <Array as="points">
              <mxPoint x="9734" y="3342" />
            </Array>
          </mxGeometry>
        </mxCell>
        <mxCell id="QBRxSz0EY-qPVkkWW2uJ-1203" value="Fork" style="curved=1;startArrow=none;endArrow=block;exitX=1;exitY=0.71;entryX=0.5;entryY=0;rounded=0;" parent="1" source="QBRxSz0EY-qPVkkWW2uJ-1069" target="QBRxSz0EY-qPVkkWW2uJ-1086" edge="1">
          <mxGeometry relative="1" as="geometry">
            <Array as="points">
              <mxPoint x="10268" y="2863" />
            </Array>
          </mxGeometry>
        </mxCell>
        <mxCell id="QBRxSz0EY-qPVkkWW2uJ-1204" value="Fork" style="curved=1;startArrow=none;endArrow=block;exitX=1;exitY=0.64;entryX=0.5;entryY=0;rounded=0;" parent="1" source="QBRxSz0EY-qPVkkWW2uJ-1069" target="QBRxSz0EY-qPVkkWW2uJ-1087" edge="1">
          <mxGeometry relative="1" as="geometry">
            <Array as="points">
              <mxPoint x="10578" y="2863" />
            </Array>
          </mxGeometry>
        </mxCell>
        <mxCell id="QBRxSz0EY-qPVkkWW2uJ-1205" value="Fork" style="curved=1;startArrow=none;endArrow=block;exitX=1;exitY=0.61;entryX=0.5;entryY=0;rounded=0;" parent="1" source="QBRxSz0EY-qPVkkWW2uJ-1069" target="QBRxSz0EY-qPVkkWW2uJ-1088" edge="1">
          <mxGeometry relative="1" as="geometry">
            <Array as="points">
              <mxPoint x="10888" y="2863" />
            </Array>
          </mxGeometry>
        </mxCell>
        <mxCell id="QBRxSz0EY-qPVkkWW2uJ-1206" value="" style="curved=1;startArrow=none;endArrow=block;exitX=0.5;exitY=1;entryX=0.5;entryY=0;rounded=0;" parent="1" source="QBRxSz0EY-qPVkkWW2uJ-1088" target="QBRxSz0EY-qPVkkWW2uJ-1089" edge="1">
          <mxGeometry relative="1" as="geometry">
            <Array as="points" />
          </mxGeometry>
        </mxCell>
        <mxCell id="QBRxSz0EY-qPVkkWW2uJ-1207" value="" style="curved=1;startArrow=none;endArrow=block;exitX=1;exitY=0.68;entryX=0.5;entryY=0;rounded=0;" parent="1" source="QBRxSz0EY-qPVkkWW2uJ-1088" target="QBRxSz0EY-qPVkkWW2uJ-1090" edge="1">
          <mxGeometry relative="1" as="geometry">
            <Array as="points">
              <mxPoint x="11495" y="3002" />
            </Array>
          </mxGeometry>
        </mxCell>
        <mxCell id="QBRxSz0EY-qPVkkWW2uJ-1208" value="Fork" style="curved=1;startArrow=none;endArrow=block;exitX=0;exitY=0.64;entryX=0.5;entryY=0;rounded=0;" parent="1" source="QBRxSz0EY-qPVkkWW2uJ-1069" target="QBRxSz0EY-qPVkkWW2uJ-1091" edge="1">
          <mxGeometry relative="1" as="geometry">
            <Array as="points">
              <mxPoint x="8718" y="2863" />
            </Array>
          </mxGeometry>
        </mxCell>
        <mxCell id="QBRxSz0EY-qPVkkWW2uJ-1209" value="" style="curved=1;startArrow=none;endArrow=block;exitX=0.5;exitY=1;entryX=0.5;entryY=0;rounded=0;" parent="1" source="QBRxSz0EY-qPVkkWW2uJ-1091" target="QBRxSz0EY-qPVkkWW2uJ-1092" edge="1">
          <mxGeometry relative="1" as="geometry">
            <Array as="points" />
          </mxGeometry>
        </mxCell>
        <mxCell id="QBRxSz0EY-qPVkkWW2uJ-1210" value="Navigate Back/Forward" style="curved=1;startArrow=none;endArrow=block;exitX=1;exitY=0.57;entryX=0.5;entryY=0;rounded=0;" parent="1" source="QBRxSz0EY-qPVkkWW2uJ-1069" target="QBRxSz0EY-qPVkkWW2uJ-1093" edge="1">
          <mxGeometry relative="1" as="geometry">
            <Array as="points">
              <mxPoint x="11501" y="2863" />
            </Array>
          </mxGeometry>
        </mxCell>
        <mxCell id="QBRxSz0EY-qPVkkWW2uJ-1211" value="" style="curved=1;startArrow=none;endArrow=block;exitX=0;exitY=0.86;entryX=0.5;entryY=0;rounded=0;" parent="1" source="QBRxSz0EY-qPVkkWW2uJ-1090" target="QBRxSz0EY-qPVkkWW2uJ-1094" edge="1">
          <mxGeometry relative="1" as="geometry">
            <Array as="points">
              <mxPoint x="10692" y="3342" />
            </Array>
          </mxGeometry>
        </mxCell>
        <mxCell id="QBRxSz0EY-qPVkkWW2uJ-1212" value="" style="curved=1;startArrow=none;endArrow=block;exitX=0.5;exitY=1;entryX=0.5;entryY=0;rounded=0;" parent="1" source="QBRxSz0EY-qPVkkWW2uJ-1095" target="QBRxSz0EY-qPVkkWW2uJ-1096" edge="1">
          <mxGeometry relative="1" as="geometry">
            <Array as="points" />
          </mxGeometry>
        </mxCell>
        <mxCell id="QBRxSz0EY-qPVkkWW2uJ-1213" value="" style="curved=1;startArrow=none;endArrow=block;exitX=0.5;exitY=1;entryX=0.5;entryY=0;rounded=0;" parent="1" source="QBRxSz0EY-qPVkkWW2uJ-1096" target="QBRxSz0EY-qPVkkWW2uJ-1097" edge="1">
          <mxGeometry relative="1" as="geometry">
            <Array as="points" />
          </mxGeometry>
        </mxCell>
        <mxCell id="QBRxSz0EY-qPVkkWW2uJ-1214" value="" style="curved=1;startArrow=none;endArrow=block;exitX=0.5;exitY=1;entryX=0.5;entryY=0;rounded=0;" parent="1" source="QBRxSz0EY-qPVkkWW2uJ-1097" target="QBRxSz0EY-qPVkkWW2uJ-1098" edge="1">
          <mxGeometry relative="1" as="geometry">
            <Array as="points" />
          </mxGeometry>
        </mxCell>
        <mxCell id="QBRxSz0EY-qPVkkWW2uJ-1215" value="Fork" style="curved=1;startArrow=none;endArrow=block;exitX=0;exitY=0.72;entryX=0.5;entryY=0;rounded=0;" parent="1" source="QBRxSz0EY-qPVkkWW2uJ-1098" target="QBRxSz0EY-qPVkkWW2uJ-1099" edge="1">
          <mxGeometry relative="1" as="geometry">
            <Array as="points">
              <mxPoint x="12114" y="2863" />
            </Array>
          </mxGeometry>
        </mxCell>
        <mxCell id="QBRxSz0EY-qPVkkWW2uJ-1216" value="" style="curved=1;startArrow=none;endArrow=block;exitX=0;exitY=0.9;entryX=0.5;entryY=0;rounded=0;" parent="1" source="QBRxSz0EY-qPVkkWW2uJ-1099" target="QBRxSz0EY-qPVkkWW2uJ-1100" edge="1">
          <mxGeometry relative="1" as="geometry">
            <Array as="points">
              <mxPoint x="11845" y="3002" />
            </Array>
          </mxGeometry>
        </mxCell>
        <mxCell id="QBRxSz0EY-qPVkkWW2uJ-1217" value="" style="curved=1;startArrow=none;endArrow=block;exitX=0.6;exitY=1;entryX=0.5;entryY=0;rounded=0;" parent="1" source="QBRxSz0EY-qPVkkWW2uJ-1099" target="QBRxSz0EY-qPVkkWW2uJ-1101" edge="1">
          <mxGeometry relative="1" as="geometry">
            <Array as="points">
              <mxPoint x="12155" y="3002" />
            </Array>
          </mxGeometry>
        </mxCell>
        <mxCell id="QBRxSz0EY-qPVkkWW2uJ-1218" value="" style="curved=1;startArrow=none;endArrow=block;exitX=0.5;exitY=1;entryX=0.5;entryY=0;rounded=0;" parent="1" source="QBRxSz0EY-qPVkkWW2uJ-1101" target="QBRxSz0EY-qPVkkWW2uJ-1102" edge="1">
          <mxGeometry relative="1" as="geometry">
            <Array as="points" />
          </mxGeometry>
        </mxCell>
        <mxCell id="QBRxSz0EY-qPVkkWW2uJ-1219" value="Fork" style="curved=1;startArrow=none;endArrow=block;exitX=0;exitY=0.97;entryX=0.5;entryY=0;rounded=0;" parent="1" source="QBRxSz0EY-qPVkkWW2uJ-1098" target="QBRxSz0EY-qPVkkWW2uJ-1103" edge="1">
          <mxGeometry relative="1" as="geometry">
            <Array as="points">
              <mxPoint x="12465" y="2863" />
            </Array>
          </mxGeometry>
        </mxCell>
        <mxCell id="QBRxSz0EY-qPVkkWW2uJ-1220" value="" style="curved=1;startArrow=none;endArrow=block;exitX=0.5;exitY=1;entryX=0.5;entryY=0;rounded=0;" parent="1" source="QBRxSz0EY-qPVkkWW2uJ-1103" target="QBRxSz0EY-qPVkkWW2uJ-1104" edge="1">
          <mxGeometry relative="1" as="geometry">
            <Array as="points" />
          </mxGeometry>
        </mxCell>
        <mxCell id="QBRxSz0EY-qPVkkWW2uJ-1221" value="" style="curved=1;startArrow=none;endArrow=block;exitX=0.5;exitY=1;entryX=0.5;entryY=0;rounded=0;" parent="1" source="QBRxSz0EY-qPVkkWW2uJ-1104" target="QBRxSz0EY-qPVkkWW2uJ-1105" edge="1">
          <mxGeometry relative="1" as="geometry">
            <Array as="points" />
          </mxGeometry>
        </mxCell>
        <mxCell id="QBRxSz0EY-qPVkkWW2uJ-1222" value="" style="curved=1;startArrow=none;endArrow=block;exitX=0.5;exitY=1;entryX=0.64;entryY=0;rounded=0;" parent="1" source="QBRxSz0EY-qPVkkWW2uJ-1105" target="QBRxSz0EY-qPVkkWW2uJ-1106" edge="1">
          <mxGeometry relative="1" as="geometry">
            <Array as="points">
              <mxPoint x="12465" y="3690" />
            </Array>
          </mxGeometry>
        </mxCell>
        <mxCell id="QBRxSz0EY-qPVkkWW2uJ-1223" value="Fork" style="curved=1;startArrow=none;endArrow=block;exitX=0.5;exitY=1;entryX=0.5;entryY=0;rounded=0;" parent="1" source="QBRxSz0EY-qPVkkWW2uJ-1098" target="QBRxSz0EY-qPVkkWW2uJ-1107" edge="1">
          <mxGeometry relative="1" as="geometry">
            <Array as="points" />
          </mxGeometry>
        </mxCell>
        <mxCell id="QBRxSz0EY-qPVkkWW2uJ-1224" value="" style="curved=1;startArrow=none;endArrow=block;exitX=0.5;exitY=1;entryX=0.5;entryY=0;rounded=0;" parent="1" source="QBRxSz0EY-qPVkkWW2uJ-1107" target="QBRxSz0EY-qPVkkWW2uJ-1108" edge="1">
          <mxGeometry relative="1" as="geometry">
            <Array as="points" />
          </mxGeometry>
        </mxCell>
        <mxCell id="QBRxSz0EY-qPVkkWW2uJ-1225" value="" style="curved=1;startArrow=none;endArrow=block;exitX=0.5;exitY=1;entryX=0.5;entryY=0;rounded=0;" parent="1" source="QBRxSz0EY-qPVkkWW2uJ-1108" target="QBRxSz0EY-qPVkkWW2uJ-1109" edge="1">
          <mxGeometry relative="1" as="geometry">
            <Array as="points" />
          </mxGeometry>
        </mxCell>
        <mxCell id="QBRxSz0EY-qPVkkWW2uJ-1226" value="Fork" style="curved=1;startArrow=none;endArrow=block;exitX=1;exitY=0.75;entryX=0.5;entryY=0;rounded=0;" parent="1" source="QBRxSz0EY-qPVkkWW2uJ-1098" target="QBRxSz0EY-qPVkkWW2uJ-1110" edge="1">
          <mxGeometry relative="1" as="geometry">
            <Array as="points">
              <mxPoint x="13349" y="2863" />
            </Array>
          </mxGeometry>
        </mxCell>
        <mxCell id="QBRxSz0EY-qPVkkWW2uJ-1227" value="" style="curved=1;startArrow=none;endArrow=block;exitX=0.54;exitY=1;entryX=0.5;entryY=0;rounded=0;" parent="1" source="QBRxSz0EY-qPVkkWW2uJ-1110" target="QBRxSz0EY-qPVkkWW2uJ-1111" edge="1">
          <mxGeometry relative="1" as="geometry">
            <Array as="points">
              <mxPoint x="13393" y="3342" />
            </Array>
          </mxGeometry>
        </mxCell>
        <mxCell id="QBRxSz0EY-qPVkkWW2uJ-1228" value="" style="curved=1;startArrow=none;endArrow=block;exitX=0.27;exitY=1;entryX=0.5;entryY=0;rounded=0;" parent="1" source="QBRxSz0EY-qPVkkWW2uJ-1110" target="QBRxSz0EY-qPVkkWW2uJ-1112" edge="1">
          <mxGeometry relative="1" as="geometry">
            <Array as="points">
              <mxPoint x="13083" y="3342" />
            </Array>
          </mxGeometry>
        </mxCell>
        <mxCell id="QBRxSz0EY-qPVkkWW2uJ-1229" value="" style="curved=1;startArrow=none;endArrow=block;exitX=0.5;exitY=1;entryX=1;entryY=0.12;rounded=0;" parent="1" source="QBRxSz0EY-qPVkkWW2uJ-1111" target="QBRxSz0EY-qPVkkWW2uJ-1113" edge="1">
          <mxGeometry relative="1" as="geometry">
            <Array as="points">
              <mxPoint x="13393" y="3690" />
            </Array>
          </mxGeometry>
        </mxCell>
        <mxCell id="QBRxSz0EY-qPVkkWW2uJ-1230" value="" style="curved=1;startArrow=none;endArrow=block;exitX=0.5;exitY=1;entryX=0.12;entryY=0;rounded=0;" parent="1" source="QBRxSz0EY-qPVkkWW2uJ-1112" target="QBRxSz0EY-qPVkkWW2uJ-1113" edge="1">
          <mxGeometry relative="1" as="geometry">
            <Array as="points">
              <mxPoint x="13083" y="3690" />
            </Array>
          </mxGeometry>
        </mxCell>
        <mxCell id="QBRxSz0EY-qPVkkWW2uJ-1231" value="Fork" style="curved=1;startArrow=none;endArrow=block;exitX=1;exitY=0.66;entryX=0.5;entryY=0;rounded=0;" parent="1" source="QBRxSz0EY-qPVkkWW2uJ-1098" target="QBRxSz0EY-qPVkkWW2uJ-1114" edge="1">
          <mxGeometry relative="1" as="geometry">
            <Array as="points">
              <mxPoint x="13659" y="2863" />
            </Array>
          </mxGeometry>
        </mxCell>
        <mxCell id="QBRxSz0EY-qPVkkWW2uJ-1232" value="" style="curved=1;startArrow=none;endArrow=block;exitX=0.5;exitY=1;entryX=0.5;entryY=0;rounded=0;" parent="1" source="QBRxSz0EY-qPVkkWW2uJ-1114" target="QBRxSz0EY-qPVkkWW2uJ-1115" edge="1">
          <mxGeometry relative="1" as="geometry">
            <Array as="points" />
          </mxGeometry>
        </mxCell>
        <mxCell id="QBRxSz0EY-qPVkkWW2uJ-1233" value="" style="curved=1;startArrow=none;endArrow=block;exitX=0.5;exitY=1;entryX=0.5;entryY=0;rounded=0;" parent="1" source="QBRxSz0EY-qPVkkWW2uJ-1115" target="QBRxSz0EY-qPVkkWW2uJ-1116" edge="1">
          <mxGeometry relative="1" as="geometry">
            <Array as="points" />
          </mxGeometry>
        </mxCell>
        <mxCell id="QBRxSz0EY-qPVkkWW2uJ-1234" value="" style="curved=1;startArrow=none;endArrow=block;exitX=0.5;exitY=1;entryX=0.5;entryY=0;rounded=0;" parent="1" source="QBRxSz0EY-qPVkkWW2uJ-1117" target="QBRxSz0EY-qPVkkWW2uJ-1118" edge="1">
          <mxGeometry relative="1" as="geometry">
            <Array as="points" />
          </mxGeometry>
        </mxCell>
        <mxCell id="QBRxSz0EY-qPVkkWW2uJ-1235" value="" style="curved=1;startArrow=none;endArrow=block;exitX=0.5;exitY=1;entryX=0.5;entryY=0;rounded=0;" parent="1" source="QBRxSz0EY-qPVkkWW2uJ-1118" target="QBRxSz0EY-qPVkkWW2uJ-1119" edge="1">
          <mxGeometry relative="1" as="geometry">
            <Array as="points" />
          </mxGeometry>
        </mxCell>
        <mxCell id="QBRxSz0EY-qPVkkWW2uJ-1236" value="" style="curved=1;startArrow=none;endArrow=block;exitX=0.5;exitY=1;entryX=0.5;entryY=0;rounded=0;" parent="1" source="QBRxSz0EY-qPVkkWW2uJ-1119" target="QBRxSz0EY-qPVkkWW2uJ-1120" edge="1">
          <mxGeometry relative="1" as="geometry">
            <Array as="points" />
          </mxGeometry>
        </mxCell>
        <mxCell id="QBRxSz0EY-qPVkkWW2uJ-1237" value="" style="curved=1;startArrow=none;endArrow=block;exitX=0;exitY=0.59;entryX=0.5;entryY=0;rounded=0;" parent="1" source="QBRxSz0EY-qPVkkWW2uJ-1120" target="QBRxSz0EY-qPVkkWW2uJ-1121" edge="1">
          <mxGeometry relative="1" as="geometry">
            <Array as="points">
              <mxPoint x="1036" y="2863" />
            </Array>
          </mxGeometry>
        </mxCell>
        <mxCell id="QBRxSz0EY-qPVkkWW2uJ-1238" value="" style="curved=1;startArrow=none;endArrow=block;exitX=0.29;exitY=1;entryX=0.5;entryY=0;rounded=0;" parent="1" source="QBRxSz0EY-qPVkkWW2uJ-1121" target="QBRxSz0EY-qPVkkWW2uJ-1122" edge="1">
          <mxGeometry relative="1" as="geometry">
            <Array as="points">
              <mxPoint x="945" y="3002" />
            </Array>
          </mxGeometry>
        </mxCell>
        <mxCell id="QBRxSz0EY-qPVkkWW2uJ-1239" value="" style="curved=1;startArrow=none;endArrow=block;exitX=1;exitY=0.99;entryX=0.5;entryY=0;rounded=0;" parent="1" source="QBRxSz0EY-qPVkkWW2uJ-1121" target="QBRxSz0EY-qPVkkWW2uJ-1123" edge="1">
          <mxGeometry relative="1" as="geometry">
            <Array as="points">
              <mxPoint x="1255" y="3002" />
            </Array>
          </mxGeometry>
        </mxCell>
        <mxCell id="QBRxSz0EY-qPVkkWW2uJ-1240" value="" style="curved=1;startArrow=none;endArrow=block;exitX=0.5;exitY=1;entryX=0.5;entryY=0;rounded=0;" parent="1" source="QBRxSz0EY-qPVkkWW2uJ-1123" target="QBRxSz0EY-qPVkkWW2uJ-1124" edge="1">
          <mxGeometry relative="1" as="geometry">
            <Array as="points" />
          </mxGeometry>
        </mxCell>
        <mxCell id="QBRxSz0EY-qPVkkWW2uJ-1241" value="" style="curved=1;startArrow=none;endArrow=block;exitX=0;exitY=0.62;entryX=0.5;entryY=0;rounded=0;" parent="1" source="QBRxSz0EY-qPVkkWW2uJ-1120" target="QBRxSz0EY-qPVkkWW2uJ-1125" edge="1">
          <mxGeometry relative="1" as="geometry">
            <Array as="points">
              <mxPoint x="1565" y="2863" />
            </Array>
          </mxGeometry>
        </mxCell>
        <mxCell id="QBRxSz0EY-qPVkkWW2uJ-1242" value="" style="curved=1;startArrow=none;endArrow=block;exitX=0.5;exitY=1;entryX=0.5;entryY=0;rounded=0;" parent="1" source="QBRxSz0EY-qPVkkWW2uJ-1125" target="QBRxSz0EY-qPVkkWW2uJ-1126" edge="1">
          <mxGeometry relative="1" as="geometry">
            <Array as="points" />
          </mxGeometry>
        </mxCell>
        <mxCell id="QBRxSz0EY-qPVkkWW2uJ-1243" value="" style="curved=1;startArrow=none;endArrow=block;exitX=0.5;exitY=1;entryX=0.5;entryY=0;rounded=0;" parent="1" source="QBRxSz0EY-qPVkkWW2uJ-1126" target="QBRxSz0EY-qPVkkWW2uJ-1127" edge="1">
          <mxGeometry relative="1" as="geometry">
            <Array as="points" />
          </mxGeometry>
        </mxCell>
        <mxCell id="QBRxSz0EY-qPVkkWW2uJ-1244" value="" style="curved=1;startArrow=none;endArrow=block;exitX=0.5;exitY=1;entryX=0.64;entryY=0;rounded=0;" parent="1" source="QBRxSz0EY-qPVkkWW2uJ-1127" target="QBRxSz0EY-qPVkkWW2uJ-1128" edge="1">
          <mxGeometry relative="1" as="geometry">
            <Array as="points">
              <mxPoint x="1565" y="3690" />
            </Array>
          </mxGeometry>
        </mxCell>
        <mxCell id="QBRxSz0EY-qPVkkWW2uJ-1245" value="" style="curved=1;startArrow=none;endArrow=block;exitX=0;exitY=0.67;entryX=0.5;entryY=0;rounded=0;" parent="1" source="QBRxSz0EY-qPVkkWW2uJ-1120" target="QBRxSz0EY-qPVkkWW2uJ-1129" edge="1">
          <mxGeometry relative="1" as="geometry">
            <Array as="points">
              <mxPoint x="1875" y="2863" />
            </Array>
          </mxGeometry>
        </mxCell>
        <mxCell id="QBRxSz0EY-qPVkkWW2uJ-1246" value="" style="curved=1;startArrow=none;endArrow=block;exitX=0.5;exitY=1;entryX=0.5;entryY=0;rounded=0;" parent="1" source="QBRxSz0EY-qPVkkWW2uJ-1129" target="QBRxSz0EY-qPVkkWW2uJ-1130" edge="1">
          <mxGeometry relative="1" as="geometry">
            <Array as="points" />
          </mxGeometry>
        </mxCell>
        <mxCell id="QBRxSz0EY-qPVkkWW2uJ-1247" value="" style="curved=1;startArrow=none;endArrow=block;exitX=0.5;exitY=1;entryX=0.5;entryY=0;rounded=0;" parent="1" source="QBRxSz0EY-qPVkkWW2uJ-1130" target="QBRxSz0EY-qPVkkWW2uJ-1131" edge="1">
          <mxGeometry relative="1" as="geometry">
            <Array as="points" />
          </mxGeometry>
        </mxCell>
        <mxCell id="QBRxSz0EY-qPVkkWW2uJ-1248" value="" style="curved=1;startArrow=none;endArrow=block;exitX=0;exitY=0.81;entryX=0.5;entryY=0;rounded=0;" parent="1" source="QBRxSz0EY-qPVkkWW2uJ-1120" target="QBRxSz0EY-qPVkkWW2uJ-1132" edge="1">
          <mxGeometry relative="1" as="geometry">
            <Array as="points">
              <mxPoint x="2274" y="2863" />
            </Array>
          </mxGeometry>
        </mxCell>
        <mxCell id="QBRxSz0EY-qPVkkWW2uJ-1249" value="" style="curved=1;startArrow=none;endArrow=block;exitX=0.7;exitY=1;entryX=0.5;entryY=0;rounded=0;" parent="1" source="QBRxSz0EY-qPVkkWW2uJ-1132" target="QBRxSz0EY-qPVkkWW2uJ-1133" edge="1">
          <mxGeometry relative="1" as="geometry">
            <Array as="points">
              <mxPoint x="2505" y="3342" />
            </Array>
          </mxGeometry>
        </mxCell>
        <mxCell id="QBRxSz0EY-qPVkkWW2uJ-1250" value="" style="curved=1;startArrow=none;endArrow=block;exitX=0.42;exitY=1;entryX=0.5;entryY=0;rounded=0;" parent="1" source="QBRxSz0EY-qPVkkWW2uJ-1132" target="QBRxSz0EY-qPVkkWW2uJ-1134" edge="1">
          <mxGeometry relative="1" as="geometry">
            <Array as="points">
              <mxPoint x="2183" y="3342" />
            </Array>
          </mxGeometry>
        </mxCell>
        <mxCell id="QBRxSz0EY-qPVkkWW2uJ-1251" value="" style="curved=1;startArrow=none;endArrow=block;exitX=0.5;exitY=1;entryX=1;entryY=0.27;rounded=0;" parent="1" source="QBRxSz0EY-qPVkkWW2uJ-1133" target="QBRxSz0EY-qPVkkWW2uJ-1135" edge="1">
          <mxGeometry relative="1" as="geometry">
            <Array as="points">
              <mxPoint x="2505" y="3690" />
            </Array>
          </mxGeometry>
        </mxCell>
        <mxCell id="QBRxSz0EY-qPVkkWW2uJ-1252" value="" style="curved=1;startArrow=none;endArrow=block;exitX=0.5;exitY=1;entryX=0.48;entryY=0;rounded=0;" parent="1" source="QBRxSz0EY-qPVkkWW2uJ-1134" target="QBRxSz0EY-qPVkkWW2uJ-1135" edge="1">
          <mxGeometry relative="1" as="geometry">
            <Array as="points">
              <mxPoint x="2183" y="3690" />
            </Array>
          </mxGeometry>
        </mxCell>
        <mxCell id="QBRxSz0EY-qPVkkWW2uJ-1253" value="Fork" style="curved=1;startArrow=none;endArrow=block;exitX=0.5;exitY=1;entryX=0.5;entryY=0;rounded=0;" parent="1" source="QBRxSz0EY-qPVkkWW2uJ-1120" target="QBRxSz0EY-qPVkkWW2uJ-1136" edge="1">
          <mxGeometry relative="1" as="geometry">
            <Array as="points" />
          </mxGeometry>
        </mxCell>
        <mxCell id="QBRxSz0EY-qPVkkWW2uJ-1254" value="" style="curved=1;startArrow=none;endArrow=block;exitX=0.14;exitY=1;entryX=0.5;entryY=0;rounded=0;" parent="1" source="QBRxSz0EY-qPVkkWW2uJ-1136" target="QBRxSz0EY-qPVkkWW2uJ-1137" edge="1">
          <mxGeometry relative="1" as="geometry">
            <Array as="points">
              <mxPoint x="2584" y="3002" />
            </Array>
          </mxGeometry>
        </mxCell>
        <mxCell id="QBRxSz0EY-qPVkkWW2uJ-1255" value="" style="curved=1;startArrow=none;endArrow=block;exitX=0.86;exitY=1;entryX=0.5;entryY=0;rounded=0;" parent="1" source="QBRxSz0EY-qPVkkWW2uJ-1136" target="QBRxSz0EY-qPVkkWW2uJ-1138" edge="1">
          <mxGeometry relative="1" as="geometry">
            <Array as="points">
              <mxPoint x="2894" y="3002" />
            </Array>
          </mxGeometry>
        </mxCell>
        <mxCell id="QBRxSz0EY-qPVkkWW2uJ-1256" value="" style="curved=1;startArrow=none;endArrow=block;exitX=0.5;exitY=1;entryX=0.5;entryY=0;rounded=0;" parent="1" source="QBRxSz0EY-qPVkkWW2uJ-1138" target="QBRxSz0EY-qPVkkWW2uJ-1139" edge="1">
          <mxGeometry relative="1" as="geometry">
            <Array as="points" />
          </mxGeometry>
        </mxCell>
        <mxCell id="QBRxSz0EY-qPVkkWW2uJ-1257" value="" style="curved=1;startArrow=none;endArrow=block;exitX=1;exitY=0.73;entryX=0.5;entryY=0;rounded=0;" parent="1" source="QBRxSz0EY-qPVkkWW2uJ-1120" target="QBRxSz0EY-qPVkkWW2uJ-1140" edge="1">
          <mxGeometry relative="1" as="geometry">
            <Array as="points">
              <mxPoint x="3359" y="2863" />
            </Array>
          </mxGeometry>
        </mxCell>
        <mxCell id="QBRxSz0EY-qPVkkWW2uJ-1258" value="" style="curved=1;startArrow=none;endArrow=block;exitX=0.14;exitY=1;entryX=0.5;entryY=0;rounded=0;" parent="1" source="QBRxSz0EY-qPVkkWW2uJ-1140" target="QBRxSz0EY-qPVkkWW2uJ-1141" edge="1">
          <mxGeometry relative="1" as="geometry">
            <Array as="points">
              <mxPoint x="3204" y="3002" />
            </Array>
          </mxGeometry>
        </mxCell>
        <mxCell id="QBRxSz0EY-qPVkkWW2uJ-1259" value="" style="curved=1;startArrow=none;endArrow=block;exitX=0.86;exitY=1;entryX=0.5;entryY=0;rounded=0;" parent="1" source="QBRxSz0EY-qPVkkWW2uJ-1140" target="QBRxSz0EY-qPVkkWW2uJ-1142" edge="1">
          <mxGeometry relative="1" as="geometry">
            <Array as="points">
              <mxPoint x="3514" y="3002" />
            </Array>
          </mxGeometry>
        </mxCell>
        <mxCell id="QBRxSz0EY-qPVkkWW2uJ-1260" value="" style="curved=1;startArrow=none;endArrow=block;exitX=1;exitY=0.62;entryX=0.5;entryY=0;rounded=0;" parent="1" source="QBRxSz0EY-qPVkkWW2uJ-1120" target="QBRxSz0EY-qPVkkWW2uJ-1143" edge="1">
          <mxGeometry relative="1" as="geometry">
            <Array as="points">
              <mxPoint x="3965" y="2863" />
            </Array>
          </mxGeometry>
        </mxCell>
        <mxCell id="QBRxSz0EY-qPVkkWW2uJ-1261" value="" style="curved=1;startArrow=none;endArrow=block;exitX=0.17;exitY=1;entryX=0.5;entryY=0;rounded=0;" parent="1" source="QBRxSz0EY-qPVkkWW2uJ-1143" target="QBRxSz0EY-qPVkkWW2uJ-1144" edge="1">
          <mxGeometry relative="1" as="geometry">
            <Array as="points">
              <mxPoint x="3824" y="3002" />
            </Array>
          </mxGeometry>
        </mxCell>
        <mxCell id="QBRxSz0EY-qPVkkWW2uJ-1262" value="" style="curved=1;startArrow=none;endArrow=block;exitX=0.9;exitY=1;entryX=0.5;entryY=0;rounded=0;" parent="1" source="QBRxSz0EY-qPVkkWW2uJ-1143" target="QBRxSz0EY-qPVkkWW2uJ-1145" edge="1">
          <mxGeometry relative="1" as="geometry">
            <Array as="points">
              <mxPoint x="4134" y="3002" />
            </Array>
          </mxGeometry>
        </mxCell>
        <mxCell id="QBRxSz0EY-qPVkkWW2uJ-1263" value="" style="curved=1;startArrow=none;endArrow=block;exitX=1;exitY=0.56;entryX=0.5;entryY=0;rounded=0;" parent="1" source="QBRxSz0EY-qPVkkWW2uJ-1120" target="QBRxSz0EY-qPVkkWW2uJ-1146" edge="1">
          <mxGeometry relative="1" as="geometry">
            <Array as="points">
              <mxPoint x="5009" y="2863" />
            </Array>
          </mxGeometry>
        </mxCell>
        <mxCell id="QBRxSz0EY-qPVkkWW2uJ-1264" value="" style="curved=1;startArrow=none;endArrow=block;exitX=0;exitY=0.68;entryX=0.5;entryY=0;rounded=0;" parent="1" source="QBRxSz0EY-qPVkkWW2uJ-1146" target="QBRxSz0EY-qPVkkWW2uJ-1147" edge="1">
          <mxGeometry relative="1" as="geometry">
            <Array as="points">
              <mxPoint x="4416" y="3002" />
            </Array>
          </mxGeometry>
        </mxCell>
        <mxCell id="QBRxSz0EY-qPVkkWW2uJ-1265" value="" style="curved=1;startArrow=none;endArrow=block;exitX=0.56;exitY=1;entryX=0.5;entryY=0;rounded=0;" parent="1" source="QBRxSz0EY-qPVkkWW2uJ-1146" target="QBRxSz0EY-qPVkkWW2uJ-1148" edge="1">
          <mxGeometry relative="1" as="geometry">
            <Array as="points">
              <mxPoint x="5036" y="3002" />
            </Array>
          </mxGeometry>
        </mxCell>
        <mxCell id="QBRxSz0EY-qPVkkWW2uJ-1266" value="" style="curved=1;startArrow=none;endArrow=block;exitX=1;exitY=0.57;entryX=0.5;entryY=0;rounded=0;" parent="1" source="QBRxSz0EY-qPVkkWW2uJ-1120" target="QBRxSz0EY-qPVkkWW2uJ-1149" edge="1">
          <mxGeometry relative="1" as="geometry">
            <Array as="points">
              <mxPoint x="4699" y="2863" />
            </Array>
          </mxGeometry>
        </mxCell>
        <mxCell id="QBRxSz0EY-qPVkkWW2uJ-1267" value="" style="curved=1;startArrow=none;endArrow=block;exitX=0.56;exitY=1;entryX=0.5;entryY=0;rounded=0;" parent="1" source="QBRxSz0EY-qPVkkWW2uJ-1149" target="QBRxSz0EY-qPVkkWW2uJ-1150" edge="1">
          <mxGeometry relative="1" as="geometry">
            <Array as="points">
              <mxPoint x="4726" y="3002" />
            </Array>
          </mxGeometry>
        </mxCell>
        <mxCell id="QBRxSz0EY-qPVkkWW2uJ-1268" value="" style="curved=1;startArrow=none;endArrow=block;exitX=0.5;exitY=1;entryX=0.5;entryY=0;rounded=0;" parent="1" source="QBRxSz0EY-qPVkkWW2uJ-1150" target="QBRxSz0EY-qPVkkWW2uJ-1151" edge="1">
          <mxGeometry relative="1" as="geometry">
            <Array as="points" />
          </mxGeometry>
        </mxCell>
        <mxCell id="QBRxSz0EY-qPVkkWW2uJ-1269" value="" style="curved=1;startArrow=none;endArrow=block;exitX=0.5;exitY=1;entryX=0.5;entryY=0;rounded=0;" parent="1" source="QBRxSz0EY-qPVkkWW2uJ-1148" target="QBRxSz0EY-qPVkkWW2uJ-1152" edge="1">
          <mxGeometry relative="1" as="geometry">
            <Array as="points" />
          </mxGeometry>
        </mxCell>
        <mxCell id="QBRxSz0EY-qPVkkWW2uJ-1270" value="Approve/Reject" style="curved=1;startArrow=none;endArrow=block;exitX=1;exitY=0.55;entryX=0;entryY=0.48;rounded=0;" parent="1" source="QBRxSz0EY-qPVkkWW2uJ-1054" target="QBRxSz0EY-qPVkkWW2uJ-1102" edge="1">
          <mxGeometry relative="1" as="geometry">
            <Array as="points">
              <mxPoint x="7363" y="3342" />
            </Array>
          </mxGeometry>
        </mxCell>
        <mxCell id="QBRxSz0EY-qPVkkWW2uJ-1271" value="Approve/Reject" style="curved=1;startArrow=none;endArrow=block;exitX=0.19;exitY=1;entryX=1;entryY=0.48;rounded=0;" parent="1" source="QBRxSz0EY-qPVkkWW2uJ-1054" target="QBRxSz0EY-qPVkkWW2uJ-1124" edge="1">
          <mxGeometry relative="1" as="geometry">
            <Array as="points">
              <mxPoint x="5359" y="3342" />
            </Array>
          </mxGeometry>
        </mxCell>
        <mxCell id="QBRxSz0EY-qPVkkWW2uJ-1272" value="Approve/Reject" style="curved=1;startArrow=none;endArrow=block;exitX=0.65;exitY=1;entryX=1;entryY=0.47;rounded=0;" parent="1" source="QBRxSz0EY-qPVkkWW2uJ-1054" target="QBRxSz0EY-qPVkkWW2uJ-1139" edge="1">
          <mxGeometry relative="1" as="geometry">
            <Array as="points">
              <mxPoint x="5521" y="3342" />
            </Array>
          </mxGeometry>
        </mxCell>
        <mxCell id="QBRxSz0EY-qPVkkWW2uJ-1273" value="Request Sent" style="curved=1;startArrow=none;endArrow=block;exitX=1;exitY=0.61;entryX=0;entryY=0.46;rounded=0;" parent="1" source="QBRxSz0EY-qPVkkWW2uJ-1076" target="QBRxSz0EY-qPVkkWW2uJ-1109" edge="1">
          <mxGeometry relative="1" as="geometry">
            <Array as="points">
              <mxPoint x="10761" y="3342" />
            </Array>
          </mxGeometry>
        </mxCell>
        <mxCell id="QBRxSz0EY-qPVkkWW2uJ-1274" value="Request Sent" style="curved=1;startArrow=none;endArrow=block;exitX=0;exitY=0.63;entryX=1;entryY=0.49;rounded=0;" parent="1" source="QBRxSz0EY-qPVkkWW2uJ-1076" target="QBRxSz0EY-qPVkkWW2uJ-1131" edge="1">
          <mxGeometry relative="1" as="geometry">
            <Array as="points">
              <mxPoint x="9283" y="3342" />
            </Array>
          </mxGeometry>
        </mxCell>
        <mxCell id="QBRxSz0EY-qPVkkWW2uJ-1275" value="Review Submitted" style="curved=1;startArrow=none;endArrow=block;exitX=1;exitY=0.57;entryX=0;entryY=0.29;rounded=0;" parent="1" source="QBRxSz0EY-qPVkkWW2uJ-1085" target="QBRxSz0EY-qPVkkWW2uJ-1106" edge="1">
          <mxGeometry relative="1" as="geometry">
            <Array as="points">
              <mxPoint x="10875" y="3653" />
              <mxPoint x="12073" y="3690" />
            </Array>
          </mxGeometry>
        </mxCell>
        <mxCell id="QBRxSz0EY-qPVkkWW2uJ-1276" value="Review Submitted" style="curved=1;startArrow=none;endArrow=block;exitX=0;exitY=0.56;entryX=0;entryY=0.29;rounded=0;" parent="1" source="QBRxSz0EY-qPVkkWW2uJ-1085" target="QBRxSz0EY-qPVkkWW2uJ-1128" edge="1">
          <mxGeometry relative="1" as="geometry">
            <Array as="points">
              <mxPoint x="8500" y="3653" />
              <mxPoint x="1173" y="3690" />
            </Array>
          </mxGeometry>
        </mxCell>
        <mxCell id="QBRxSz0EY-qPVkkWW2uJ-1277" value="Blog Interaction" style="curved=1;startArrow=none;endArrow=block;exitX=1;exitY=0.58;entryX=0;entryY=0.33;rounded=0;" parent="1" source="QBRxSz0EY-qPVkkWW2uJ-1081" target="QBRxSz0EY-qPVkkWW2uJ-1113" edge="1">
          <mxGeometry relative="1" as="geometry">
            <Array as="points">
              <mxPoint x="11419" y="3653" />
              <mxPoint x="12775" y="3690" />
            </Array>
          </mxGeometry>
        </mxCell>
        <mxCell id="QBRxSz0EY-qPVkkWW2uJ-1278" value="Blog Interaction" style="curved=1;startArrow=none;endArrow=block;exitX=0;exitY=0.55;entryX=0;entryY=0.26;rounded=0;" parent="1" source="QBRxSz0EY-qPVkkWW2uJ-1081" target="QBRxSz0EY-qPVkkWW2uJ-1135" edge="1">
          <mxGeometry relative="1" as="geometry">
            <Array as="points">
              <mxPoint x="8687" y="3653" />
              <mxPoint x="1875" y="3690" />
            </Array>
          </mxGeometry>
        </mxCell>
        <mxCell id="QBRxSz0EY-qPVkkWW2uJ-1279" value="Query Sent" style="curved=1;startArrow=none;endArrow=block;exitX=1;exitY=0.63;entryX=1;entryY=0.48;rounded=0;" parent="1" source="QBRxSz0EY-qPVkkWW2uJ-1092" target="QBRxSz0EY-qPVkkWW2uJ-1151" edge="1">
          <mxGeometry relative="1" as="geometry">
            <Array as="points">
              <mxPoint x="9393" y="3342" />
            </Array>
          </mxGeometry>
        </mxCell>
        <mxCell id="QBRxSz0EY-qPVkkWW2uJ-1280" value="Hospital Management" style="text;html=1;align=center;verticalAlign=middle;resizable=0;points=[];autosize=1;strokeColor=none;fillColor=none;fontSize=48;" parent="1" vertex="1">
          <mxGeometry x="2527" y="2091" width="490" height="70" as="geometry" />
        </mxCell>
      </root>
    </mxGraphModel>
  </diagram>
</mxfile>
